<svg xmlns="http://www.w3.org/2000/svg" width="32.892" height="32.895" viewBox="0 0 32.892 32.895">
  <defs>
    <style>
      .cls-1 {
        fill: #363938;
      }
    </style>
  </defs>
  <path id="cube_3_" data-name="cube (3)" class="cls-1" d="M33.223,7.666,17.873,1.088a1.056,1.056,0,0,0-.855,0L1.669,7.666A1.17,1.17,0,0,0,1,8.675V26.217a1.1,1.1,0,0,0,.669,1.009L17.018,33.8a1.087,1.087,0,0,0,.855,0l15.35-6.578a1.1,1.1,0,0,0,.669-1.009V8.675a1.17,1.17,0,0,0-.669-1.009ZM16.35,31.129,3.193,25.494V10.342L16.35,15.977Z" transform="translate(-1 -0.997)"/>
</svg>
