<svg xmlns="http://www.w3.org/2000/svg" width="21.931" height="17.545" viewBox="0 0 21.931 17.545">
  <defs>
    <style>
      .cls-1 {
        fill: #90af00;
      }
    </style>
  </defs>
  <g id="组_8010" data-name="组 8010" transform="translate(-1254.943 -682.228)">
    <path id="路径_17193" data-name="路径 17193" class="cls-1" d="M151.513,68.879a2.193,2.193,0,1,0-2.193-2.193A2.2,2.2,0,0,0,151.513,68.879Zm0,0" transform="translate(1108.913 621.025)"/>
    <path id="路径_17194" data-name="路径 17194" class="cls-1" d="M104.51.492H88.062A2.745,2.745,0,0,0,85.32,3.234V15.3a2.745,2.745,0,0,0,2.741,2.742H104.51a2.745,2.745,0,0,0,2.742-2.742V3.234A2.745,2.745,0,0,0,104.51.492ZM88.062,2.685H104.51a.548.548,0,0,1,.548.548v7.784l-3.464-4.042a1.964,1.964,0,0,0-1.471-.674,1.917,1.917,0,0,0-1.465.692l-4.073,4.888-1.327-1.324a1.925,1.925,0,0,0-2.719,0l-3.026,3.025V3.234A.548.548,0,0,1,88.062,2.685Zm0,0" transform="translate(1169.623 681.735)"/>
  </g>
</svg>
