<svg xmlns="http://www.w3.org/2000/svg" width="17.075" height="17.069" viewBox="0 0 17.075 17.069">
  <defs>
    <style>
      .cls-1 {
        fill: #fff;
      }
    </style>
  </defs>
  <path id="Trazado_12850" data-name="Trazado 12850" class="cls-1" d="M8.532,1.539c2.28,0,2.546.007,3.446.047a4.878,4.878,0,0,1,1.586.293,2.606,2.606,0,0,1,.98.64,2.606,2.606,0,0,1,.64.98,4.7,4.7,0,0,1,.293,1.586c.04.9.047,1.167.047,3.446s-.007,2.546-.047,3.446a4.878,4.878,0,0,1-.293,1.586,2.849,2.849,0,0,1-1.62,1.62,4.7,4.7,0,0,1-1.586.293c-.9.04-1.167.047-3.446.047s-2.546-.007-3.446-.047A4.878,4.878,0,0,1,3.5,15.183a2.606,2.606,0,0,1-.979-.64,2.606,2.606,0,0,1-.64-.98,4.7,4.7,0,0,1-.293-1.586c-.04-.9-.047-1.167-.047-3.446s.007-2.546.047-3.446A4.878,4.878,0,0,1,1.879,3.5a2.606,2.606,0,0,1,.642-.978A2.606,2.606,0,0,1,3.5,1.879a4.7,4.7,0,0,1,1.586-.293c.9-.04,1.167-.047,3.446-.047M8.531,0C6.211,0,5.925.007,5.012.053A6.307,6.307,0,0,0,2.95.447a4.149,4.149,0,0,0-1.513.986,4.236,4.236,0,0,0-.99,1.513A6.146,6.146,0,0,0,.053,5.019C.007,5.925,0,6.211,0,8.532s.007,2.606.053,3.519a6.389,6.389,0,0,0,.393,2.073,4.149,4.149,0,0,0,.986,1.513,4.236,4.236,0,0,0,1.513.986,6.146,6.146,0,0,0,2.073.393c.917.04,1.2.053,3.519.053s2.606-.007,3.519-.053a6.389,6.389,0,0,0,2.073-.393,4.149,4.149,0,0,0,1.513-.986,4.236,4.236,0,0,0,.986-1.513,6.146,6.146,0,0,0,.393-2.073c.04-.917.053-1.2.053-3.519s-.007-2.606-.053-3.519a6.389,6.389,0,0,0-.393-2.073,4.149,4.149,0,0,0-.986-1.513,4.264,4.264,0,0,0-1.528-.98A6.146,6.146,0,0,0,12.043.053C11.137.007,10.848,0,8.532,0Zm0,4.152a4.379,4.379,0,1,0,4.38,4.379,4.379,4.379,0,0,0-4.38-4.379Zm0,7.225a2.846,2.846,0,1,1,2.846-2.846,2.846,2.846,0,0,1-2.846,2.846Zm5.577-7.4a1.023,1.023,0,1,1-1.02-1.027,1.023,1.023,0,0,1,1.02,1.027Z"/>
</svg>
