<svg xmlns="http://www.w3.org/2000/svg" width="214.744" height="33.819" viewBox="0 0 214.744 33.819">
  <defs>
    <style>
      .cls-1 {
        fill: #a9c300;
      }

      .cls-2 {
        fill: #fff;
      }

      .cls-3 {
        fill: #7ca206;
      }
    </style>
  </defs>
  <g id="组_8001" data-name="组 8001" transform="translate(1894.399 -968.289)">
    <path id="路径_17178" data-name="路径 17178" class="cls-1" d="M13.017,318.162V303.132l-4.444-2.567L6.51,299.374v-7.515L0,295.615H0v22.546l9.35,5.4,3.668,2.116,6.509-3.757Z" transform="translate(-1894.399 676.431)"/>
    <path id="路径_17179" data-name="路径 17179" class="cls-2" d="M31.519,293.976l-3.667-2.118-6.509,3.757,10.175,5.875,2.842,1.642v7.514l-6.509-3.758V321.92l6.509,3.757,6.507-3.757V299.374Z" transform="translate(-1902.725 676.431)"/>
    <path id="路径_17180" data-name="路径 17180" class="cls-1" d="M343.73,308.539H337.4l-6.76,6.28,3.167,2.94Z" transform="translate(-2023.385 669.923)"/>
    <path id="路径_17181" data-name="路径 17181" class="cls-2" d="M67.844,306.008H78.658V324.45h4.559V306.008H94.032v-3.957H67.844Z" transform="translate(-1920.866 672.455)"/>
    <path id="路径_17182" data-name="路径 17182" class="cls-2" d="M114.956,309.614a3.477,3.477,0,0,0-1.237,2.707V323.2a3.475,3.475,0,0,0,1.237,2.707,4.621,4.621,0,0,0,3.143,1.075h17.035v-3.958h-16.86v-3.285h16.86v-3.958h-16.86V312.5h16.86v-3.958H118.1a4.621,4.621,0,0,0-3.143,1.075" transform="translate(-1938.763 669.924)"/>
    <path id="路径_17183" data-name="路径 17183" class="cls-2" d="M335.355,326.981l-9.928-9.221h0l-9.926-9.22h-6.331l9.926,9.22-9.926,9.222h6.33l6.764-6.281,6.762,6.281Z" transform="translate(-2015.01 669.923)"/>
    <path id="路径_17184" data-name="路径 17184" class="cls-2" d="M250.564,307.081a4.739,4.739,0,0,0-3.1-1.073H235.019v-3.958h-4.556v22.4h17a4.635,4.635,0,0,0,3.272-1.125,3.443,3.443,0,0,0,1.145-2.657V309.7a3.307,3.307,0,0,0-1.314-2.616m-3.279,13.411H235.019V309.964h12.265Z" transform="translate(-1984.306 672.455)"/>
    <path id="路径_17185" data-name="路径 17185" class="cls-2" d="M290.487,309.646a4.57,4.57,0,0,0-3.107-1.107H274.729a4.475,4.475,0,0,0-3.129,1.142,3.5,3.5,0,0,0-1.254,2.64V323.2a4.98,4.98,0,0,0,.152,1.25c.48,1.678,1.9,2.532,4.231,2.532h12.651c2.909,0,4.381-1.272,4.381-3.781V312.321a3.458,3.458,0,0,0-1.275-2.675M287.2,323.024H274.9V312.5h12.3Z" transform="translate(-1999.865 669.924)"/>
    <path id="路径_17186" data-name="路径 17186" class="cls-2" d="M153.6,308.539v18.442h4.559V312.5h15.08v-3.957H153.6Z" transform="translate(-1954.322 669.923)"/>
    <path id="路径_17187" data-name="路径 17187" class="cls-2" d="M210.753,309.614a4.618,4.618,0,0,0-3.141-1.075H190.576V323.2a3.447,3.447,0,0,0,1.257,2.707,4.641,4.641,0,0,0,3.126,1.075h9.495v-3.958h-9.32V312.5h12.3v14.485h4.558V312.32a3.478,3.478,0,0,0-1.239-2.707" transform="translate(-1968.746 669.924)"/>
    <path id="路径_17188" data-name="路径 17188" class="cls-2" d="M34.361,303.132l6.507-3.758-9.35-5.4-3.667-2.117-6.509,3.756,10.175,5.876Z" transform="translate(-1902.725 676.431)"/>
    <path id="路径_17189" data-name="路径 17189" class="cls-3" d="M21.344,334.988V342.5l6.509-3.757Z" transform="translate(-1902.725 659.606)"/>
  </g>
</svg>
