<svg xmlns="http://www.w3.org/2000/svg" width="8.56" height="66.245" viewBox="0 0 8.56 66.245">
  <defs>
    <style>
      .cls-1 {
        fill: #a9c301;
      }
    </style>
  </defs>
  <g id="组_7996" data-name="组 7996" transform="translate(-1235.214 7705.59) rotate(-90)">
    <path id="路径_17157" data-name="路径 17157" class="cls-1" d="M335.64,308.539h-2.42l-2.583,2.4,1.21,1.123Z" transform="translate(7369.951 928.188)"/>
    <path id="路径_17158" data-name="路径 17158" class="cls-1" d="M67.844,303.564h4.132v7.047h1.742v-7.047H77.85v-1.512H67.844Z" transform="translate(7571.501 933.164)"/>
    <path id="路径_17159" data-name="路径 17159" class="cls-1" d="M114.192,308.95a1.329,1.329,0,0,0-.473,1.034v4.157a1.328,1.328,0,0,0,.473,1.034,1.766,1.766,0,0,0,1.2.411H121.9v-1.512H115.46v-1.255H121.9v-1.512H115.46v-1.255H121.9v-1.512h-6.509a1.766,1.766,0,0,0-1.2.411" transform="translate(7536.317 928.188)"/>
    <path id="路径_17160" data-name="路径 17160" class="cls-1" d="M319.174,315.587l-3.794-3.524h0l-3.793-3.523h-2.419l3.793,3.523-3.793,3.524h2.419l2.584-2.4,2.584,2.4Z" transform="translate(7386.417 928.187)"/>
    <path id="路径_17161" data-name="路径 17161" class="cls-1" d="M238.144,303.972a1.811,1.811,0,0,0-1.186-.41H232.2v-1.512h-1.741v8.559h6.5a1.771,1.771,0,0,0,1.25-.43,1.316,1.316,0,0,0,.437-1.015v-4.192a1.264,1.264,0,0,0-.5-1m-1.253,5.125H232.2v-4.023h4.687Z" transform="translate(7446.78 933.165)"/>
    <path id="路径_17162" data-name="路径 17162" class="cls-1" d="M278.042,308.962a1.746,1.746,0,0,0-1.187-.423h-4.834a1.71,1.71,0,0,0-1.2.436,1.339,1.339,0,0,0-.479,1.009v4.157a1.9,1.9,0,0,0,.058.478c.183.641.727.967,1.617.967h4.834c1.112,0,1.674-.486,1.674-1.445v-4.157a1.321,1.321,0,0,0-.487-1.022m-1.254,5.112h-4.7v-4.023h4.7Z" transform="translate(7416.191 928.188)"/>
    <path id="路径_17163" data-name="路径 17163" class="cls-1" d="M153.6,308.539v7.047h1.742v-5.535h5.762v-1.512h-7.5Z" transform="translate(7505.728 928.188)"/>
    <path id="路径_17164" data-name="路径 17164" class="cls-1" d="M198.286,308.95a1.765,1.765,0,0,0-1.2-.411h-6.51v5.6a1.317,1.317,0,0,0,.48,1.034,1.774,1.774,0,0,0,1.194.411h3.628v-1.512h-3.561v-4.023h4.7v5.535h1.742v-5.6a1.329,1.329,0,0,0-.473-1.034" transform="translate(7477.371 928.188)"/>
  </g>
</svg>
