<svg xmlns="http://www.w3.org/2000/svg" width="65.916" height="64.401" viewBox="0 0 65.916 64.401">
  <defs>
    <style>
      .cls-1 {
        isolation: isolate;
      }

      .cls-2 {
        fill: #aacd06;
      }
    </style>
  </defs>
  <g id="组_7034" data-name="组 7034" class="cls-1" transform="translate(-384.837 -1012.774)">
    <path id="路径_116" data-name="路径 116" class="cls-2" d="M384.837,1077.175v-12.234a21.293,21.293,0,0,0,7.43-6.875,33.084,33.084,0,0,0,3.892-8.542,35.863,35.863,0,0,0,1.314-10.059H384.837v-26.69h26.69v16.58q0,14.964-2.881,22.8a44.7,44.7,0,0,1-8.745,14.407A43.014,43.014,0,0,1,384.837,1077.175Zm39.226,0v-12.234a22.042,22.042,0,0,0,7.38-6.875,32.144,32.144,0,0,0,3.943-8.542,35.863,35.863,0,0,0,1.314-10.059H424.063v-26.69h26.69v16.58q0,14.964-2.881,22.8a44.7,44.7,0,0,1-8.745,14.407A43.011,43.011,0,0,1,424.063,1077.175Z"/>
  </g>
</svg>
