<svg id="组_8014" data-name="组 8014" xmlns="http://www.w3.org/2000/svg" xmlns:xlink="http://www.w3.org/1999/xlink" width="155" height="223.276" viewBox="0 0 155 223.276">
  <defs>
    <style>
      .cls-1 {
        fill: #212121;
      }

      .cls-2 {
        clip-path: url(#clip-path);
      }
    </style>
    <clipPath id="clip-path">
      <rect id="矩形_5975" data-name="矩形 5975" class="cls-1" width="155" height="223.276"/>
    </clipPath>
  </defs>
  <rect id="矩形_5713" data-name="矩形 5713" class="cls-1" width="1.018" height="99.776" transform="translate(83.584 123.5)"/>
  <rect id="矩形_5714" data-name="矩形 5714" class="cls-1" width="1.018" height="14.573" transform="translate(65.894 115.163)"/>
  <rect id="矩形_5715" data-name="矩形 5715" class="cls-1" width="1.019" height="76.485" transform="translate(91.207 81.316)"/>
  <rect id="矩形_5716" data-name="矩形 5716" class="cls-1" width="1.019" height="64.386" transform="translate(86.86 85.698)"/>
  <rect id="矩形_5717" data-name="矩形 5717" class="cls-1" width="1.019" height="12.063" transform="translate(113.075 121.574)"/>
  <rect id="矩形_5718" data-name="矩形 5718" class="cls-1" width="1.018" height="25.665" transform="translate(99.966 114.689)"/>
  <rect id="矩形_5719" data-name="矩形 5719" class="cls-1" width="1.017" height="85.728" transform="translate(108.728 137.548)"/>
  <rect id="矩形_5720" data-name="矩形 5720" class="cls-1" width="1.019" height="82.015" transform="translate(110.902 141.26)"/>
  <rect id="矩形_5721" data-name="矩形 5721" class="cls-1" width="1.019" height="58.514" transform="translate(106.712 137.549)"/>
  <rect id="矩形_5722" data-name="矩形 5722" class="cls-1" width="1.019" height="16.256" transform="translate(86.86 161.718)"/>
  <rect id="矩形_5723" data-name="矩形 5723" class="cls-1" width="23.434" height="1.019" transform="translate(49.228 111.565)"/>
  <rect id="矩形_5724" data-name="矩形 5724" class="cls-1" width="1.018" height="16.879" transform="translate(71.948 112.283) rotate(-44.998)"/>
  <rect id="矩形_5725" data-name="矩形 5725" class="cls-1" width="1.018" height="19.496" transform="translate(63.478 149.181) rotate(-45.018)"/>
  <rect id="矩形_5726" data-name="矩形 5726" class="cls-1" width="1.018" height="18.229" transform="translate(100.476 157.797) rotate(-45.032)"/>
  <rect id="矩形_5727" data-name="矩形 5727" class="cls-1" width="1.018" height="22.149" transform="matrix(0.707, -0.707, 0.707, 0.707, 37.872, 141.208)"/>
  <rect id="矩形_5728" data-name="矩形 5728" class="cls-1" width="1.018" height="16.879" transform="translate(75.223 109.321) rotate(-44.998)"/>
  <rect id="矩形_5729" data-name="矩形 5729" class="cls-1" width="1.018" height="9.549" transform="translate(65.912 121.126) rotate(-44.983)"/>
  <rect id="矩形_5730" data-name="矩形 5730" class="cls-1" width="1.018" height="9.549" transform="translate(55.971 133.367) rotate(-44.983)"/>
  <rect id="矩形_5731" data-name="矩形 5731" class="cls-1" width="1.018" height="9.548" transform="translate(57.193 151.922) rotate(-44.98)"/>
  <rect id="矩形_5732" data-name="矩形 5732" class="cls-1" width="1.018" height="16.879" transform="translate(69.53 47.51) rotate(-45)"/>
  <path id="路径_17195" data-name="路径 17195" class="cls-1" d="M81.45,64.606,75.122,58.3l.72-.72,6.328,6.305Z" transform="translate(-14.683 -11.255)"/>
  <rect id="矩形_5733" data-name="矩形 5733" class="cls-1" width="1.017" height="10.048" transform="translate(65.894 129.735) rotate(-44.977)"/>
  <rect id="矩形_5734" data-name="矩形 5734" class="cls-1" width="1.019" height="14.571" transform="translate(73.599 10.33)"/>
  <rect id="矩形_5735" data-name="矩形 5735" class="cls-1" width="1.018" height="10.048" transform="translate(73.599 24.902) rotate(-44.977)"/>
  <rect id="矩形_5736" data-name="矩形 5736" class="cls-1" width="1.018" height="14.571" transform="translate(70.707 13.972)"/>
  <rect id="矩形_5737" data-name="矩形 5737" class="cls-1" width="1.018" height="13.038" transform="translate(62.196 16.005)"/>
  <rect id="矩形_5738" data-name="矩形 5738" class="cls-1" width="1.018" height="14.139" transform="matrix(0.707, -0.707, 0.707, 0.707, 70.707, 28.544)"/>
  <rect id="矩形_5739" data-name="矩形 5739" class="cls-1" width="1.018" height="6.373" transform="matrix(0.706, -0.708, 0.708, 0.706, 78.693, 77.405)"/>
  <rect id="矩形_5740" data-name="矩形 5740" class="cls-1" width="1.017" height="6.373" transform="matrix(0.706, -0.708, 0.708, 0.706, 66.915, 74.117)"/>
  <rect id="矩形_5741" data-name="矩形 5741" class="cls-1" width="1.018" height="6.374" transform="translate(78.469 94.532) rotate(-45.051)"/>
  <rect id="矩形_5742" data-name="矩形 5742" class="cls-1" width="1.018" height="6.374" transform="translate(49.738 117.669) rotate(-45.051)"/>
  <rect id="矩形_5743" data-name="矩形 5743" class="cls-1" width="1.018" height="6.373" transform="matrix(0.706, -0.708, 0.708, 0.706, 52.353, 135.744)"/>
  <rect id="矩形_5744" data-name="矩形 5744" class="cls-1" width="1.018" height="6.374" transform="matrix(0.706, -0.708, 0.708, 0.706, 73.971, 82.101)"/>
  <path id="路径_17196" data-name="路径 17196" class="cls-1" d="M122.58,86l-9-8.919.72-.719,9,8.918Z" transform="translate(-22.2 -14.927)"/>
  <path id="路径_17197" data-name="路径 17197" class="cls-1" d="M124.008,179.543l-4.389-4.372.718-.719,4.39,4.37Z" transform="translate(-23.381 -34.099)"/>
  <path id="路径_17198" data-name="路径 17198" class="cls-1" d="M103,190.194l-4.39-4.372.72-.719,4.39,4.371Z" transform="translate(-19.275 -36.18)"/>
  <path id="路径_17199" data-name="路径 17199" class="cls-1" d="M93.445,263.178l-4.39-4.372.72-.719,4.39,4.371Z" transform="translate(-17.407 -50.446)"/>
  <rect id="矩形_5745" data-name="矩形 5745" class="cls-1" width="1.018" height="7.445" transform="translate(115.676 86.068) rotate(-44.996)"/>
  <rect id="矩形_5746" data-name="矩形 5746" class="cls-1" width="1.018" height="7.445" transform="translate(119.844 86.068) rotate(-44.996)"/>
  <rect id="矩形_5747" data-name="矩形 5747" class="cls-1" width="1.018" height="7.445" transform="translate(117.58 74.433) rotate(-44.996)"/>
  <path id="路径_17200" data-name="路径 17200" class="cls-1" d="M118.184,94.872,110.749,87.4l.72-.719,7.435,7.468Z" transform="translate(-21.647 -16.943)"/>
  <rect id="矩形_5748" data-name="矩形 5748" class="cls-1" width="1.018" height="7.445" transform="matrix(0.707, -0.707, 0.707, 0.707, 93.012, 48.21)"/>
  <rect id="矩形_5749" data-name="矩形 5749" class="cls-1" width="1.017" height="10.044" transform="matrix(0.707, -0.707, 0.707, 0.707, 59.093, 58.457)"/>
  <rect id="矩形_5750" data-name="矩形 5750" class="cls-1" width="1.018" height="7.446" transform="matrix(0.707, -0.707, 0.707, 0.707, 102.401, 38.638)"/>
  <path id="路径_17201" data-name="路径 17201" class="cls-1" d="M158.721,89.709l-8.088-8.132.719-.719,8.088,8.131Z" transform="translate(-29.443 -15.804)"/>
  <path id="路径_17202" data-name="路径 17202" class="cls-1" d="M183.721,109.435l-8.088-8.132.719-.719,8.088,8.131Z" transform="translate(-34.329 -19.66)"/>
  <rect id="矩形_5751" data-name="矩形 5751" class="cls-1" width="1.018" height="10.213" transform="translate(100.793 59.274) rotate(-44.952)"/>
  <rect id="矩形_5752" data-name="矩形 5752" class="cls-1" width="1.018" height="10.213" transform="translate(98.808 42.671) rotate(-44.952)"/>
  <rect id="矩形_5753" data-name="矩形 5753" class="cls-1" width="1.018" height="8.948" transform="matrix(0.707, -0.707, 0.707, 0.707, 120.739, 162.437)"/>
  <rect id="矩形_5754" data-name="矩形 5754" class="cls-1" width="1.018" height="8.948" transform="translate(86.859 177.974) rotate(-45.004)"/>
  <rect id="矩形_5755" data-name="矩形 5755" class="cls-1" width="6.566" height="1.018" transform="translate(86.86 161.717) rotate(-44.97)"/>
  <rect id="矩形_5756" data-name="矩形 5756" class="cls-1" width="1.019" height="12.561" transform="translate(89.542 162.957)"/>
  <rect id="矩形_5757" data-name="矩形 5757" class="cls-1" width="1.018" height="9.378" transform="translate(93.89 149.658)"/>
  <rect id="矩形_5758" data-name="矩形 5758" class="cls-1" width="6.566" height="1.018" transform="matrix(0.707, -0.707, 0.707, 0.707, 89.543, 162.957)"/>
  <rect id="矩形_5759" data-name="矩形 5759" class="cls-1" width="6.565" height="1.018" transform="translate(108.728 137.557) rotate(-44.96)"/>
  <rect id="矩形_5760" data-name="矩形 5760" class="cls-1" width="1.019" height="12.062" transform="translate(115.249 125.286)"/>
  <rect id="矩形_5761" data-name="矩形 5761" class="cls-1" width="6.565" height="1.018" transform="matrix(0.707, -0.707, 0.707, 0.707, 110.902, 141.268)"/>
  <rect id="矩形_5762" data-name="矩形 5762" class="cls-1" width="1.018" height="79.031" transform="translate(113.076 144.244)"/>
  <rect id="矩形_5763" data-name="矩形 5763" class="cls-1" width="6.565" height="1.018" transform="matrix(0.707, -0.707, 0.707, 0.707, 113.076, 144.252)"/>
  <rect id="矩形_5764" data-name="矩形 5764" class="cls-1" width="6.565" height="1.018" transform="translate(89.829 174.798) rotate(-44.965)"/>
  <rect id="矩形_5765" data-name="矩形 5765" class="cls-1" width="6.565" height="1.018" transform="matrix(0.708, -0.707, 0.707, 0.708, 88.524, 210.271)"/>
  <rect id="矩形_5766" data-name="矩形 5766" class="cls-1" width="6.565" height="1.017" transform="matrix(0.708, -0.707, 0.707, 0.708, 102.366, 199.985)"/>
  <rect id="矩形_5767" data-name="矩形 5767" class="cls-1" width="6.565" height="1.018" transform="translate(118.947 218.217) rotate(-44.97)"/>
  <rect id="矩形_5768" data-name="矩形 5768" class="cls-1" width="1.019" height="12.789" transform="translate(102.365 120.848)"/>
  <rect id="矩形_5769" data-name="矩形 5769" class="cls-1" width="1.018" height="6.565" transform="translate(102.366 133.639) rotate(-45.04)"/>
  <rect id="矩形_5770" data-name="矩形 5770" class="cls-1" width="6.566" height="1.017" transform="translate(124.632 140.327) rotate(-44.965)"/>
  <rect id="矩形_5771" data-name="矩形 5771" class="cls-1" width="6.565" height="1.017" transform="translate(132.633 143.88) rotate(-44.955)"/>
  <rect id="矩形_5772" data-name="矩形 5772" class="cls-1" width="1.019" height="41.662" transform="translate(107.709 65.772)"/>
  <path id="路径_17203" data-name="路径 17203" class="cls-1" d="M124.972,141.334l8.042-7.971-.719-.72-8.043,7.971Z" transform="translate(-24.286 -25.926)"/>
  <path id="路径_17204" data-name="路径 17204" class="cls-1" d="M54.922,152.135l8.043-7.971-.72-.72L54.2,151.415Z" transform="translate(-10.595 -28.038)"/>
  <path id="路径_17205" data-name="路径 17205" class="cls-1" d="M27.337,149.157l8.042-7.971-.719-.72-8.043,7.971Z" transform="translate(-5.203 -27.456)"/>
  <path id="路径_17206" data-name="路径 17206" class="cls-1" d="M44.053,140.109l8.043-7.972-.721-.719-8.041,7.971Z" transform="translate(-8.47 -25.687)"/>
  <path id="路径_17207" data-name="路径 17207" class="cls-1" d="M17.1,129.709l8.042-7.971-.719-.72-8.043,7.971Z" transform="translate(-3.201 -23.654)"/>
  <path id="路径_17208" data-name="路径 17208" class="cls-1" d="M3.859,121.678l8.043-7.972-.72-.719L3.14,120.958Z" transform="translate(-0.614 -22.084)"/>
  <path id="路径_17209" data-name="路径 17209" class="cls-1" d="M66.32,192.843l8.042-7.971-.72-.72L65.6,192.123Z" transform="translate(-12.822 -35.995)"/>
  <rect id="矩形_5773" data-name="矩形 5773" class="cls-1" width="1.019" height="31.535" transform="translate(104.679 72.1)"/>
  <path id="路径_17210" data-name="路径 17210" class="cls-1" d="M123.854,134.455l5.912-5.814-.72-.72-5.912,5.814Z" transform="translate(-24.068 -25.004)"/>
  <path id="路径_17211" data-name="路径 17211" class="cls-1" d="M185.56,110.613l3.315-3.283-.719-.719-3.315,3.282Z" transform="translate(-36.129 -20.838)"/>
  <path id="路径_17212" data-name="路径 17212" class="cls-1" d="M90.473,152.392l5.912-5.815-.72-.719-5.912,5.814Z" transform="translate(-17.543 -28.509)"/>
  <path id="路径_17213" data-name="路径 17213" class="cls-1" d="M127.955,149,136,141.028l-.719-.72-8.042,7.972Z" transform="translate(-24.87 -27.425)"/>
  <path id="路径_17214" data-name="路径 17214" class="cls-1" d="M65.792,167.5l8.041-7.971-.719-.719-8.042,7.971Z" transform="translate(-12.719 -31.041)"/>
  <path id="路径_17215" data-name="路径 17215" class="cls-1" d="M89.149,166.509l8.042-7.971-.72-.72-8.042,7.971Z" transform="translate(-17.284 -30.847)"/>
  <path id="路径_17216" data-name="路径 17216" class="cls-1" d="M74.932,169.225l7.283-7.251-.72-.719-7.283,7.251Z" transform="translate(-14.506 -31.519)"/>
  <path id="路径_17217" data-name="路径 17217" class="cls-1" d="M55.395,180.281l10.078-10.043-.72-.72L54.675,179.562Z" transform="translate(-10.687 -33.134)"/>
  <path id="路径_17218" data-name="路径 17218" class="cls-1" d="M150.819,131.547l8.041-7.971-.719-.719-8.042,7.971Z" transform="translate(-29.338 -24.014)"/>
  <rect id="矩形_5774" data-name="矩形 5774" class="cls-1" width="1.018" height="25.665" transform="translate(91.378 36.495)"/>
  <rect id="矩形_5775" data-name="矩形 5775" class="cls-1" width="1.018" height="25.707" transform="translate(106.235 5.489)"/>
  <rect id="矩形_5776" data-name="矩形 5776" class="cls-1" width="1.019" height="25.665" transform="translate(80.455 24.394)"/>
  <rect id="矩形_5777" data-name="矩形 5777" class="cls-1" width="1.019" height="5.165" transform="translate(73.907 64.667)"/>
  <path id="路径_17219" data-name="路径 17219" class="cls-1" d="M114.3,45.025l4.38-4.345-.719-.72L113.578,44.3Z" transform="translate(-22.2 -7.811)"/>
  <path id="路径_17220" data-name="路径 17220" class="cls-1" d="M154.3,72.365l-9-8.919.719-.72,9,8.919Z" transform="translate(-28.4 -12.26)"/>
  <path id="路径_17221" data-name="路径 17221" class="cls-1" d="M130.289,41.86l-9-8.918.72-.72,9,8.918Z" transform="translate(-23.707 -6.298)"/>
  <rect id="矩形_5778" data-name="矩形 5778" class="cls-1" width="1.019" height="25.665" transform="translate(116.896 25.522)"/>
  <rect id="矩形_5779" data-name="矩形 5779" class="cls-1" width="1.019" height="16.258" transform="translate(128.287 56.223)"/>
  <rect id="矩形_5780" data-name="矩形 5780" class="cls-1" width="1.019" height="12.173" transform="translate(126.109 75.672)"/>
  <path id="路径_17222" data-name="路径 17222" class="cls-1" d="M146.016,30.5l8.042-7.971-.72-.719L145.3,29.784Z" transform="translate(-28.4 -4.264)"/>
  <path id="路径_17223" data-name="路径 17223" class="cls-1" d="M123.178,14.589l8.042-7.971-.72-.72-8.041,7.972Z" transform="translate(-23.936 -1.153)"/>
  <rect id="矩形_5781" data-name="矩形 5781" class="cls-1" width="1.018" height="25.665" transform="translate(124.632 114.654)"/>
  <path id="路径_17224" data-name="路径 17224" class="cls-1" d="M155.63,141.291l8.042-7.971-.719-.72-8.042,7.971Z" transform="translate(-30.279 -25.918)"/>
  <rect id="矩形_5782" data-name="矩形 5782" class="cls-1" width="1.018" height="30.43" transform="translate(142.916 127.612)"/>
  <path id="路径_17225" data-name="路径 17225" class="cls-1" d="M176.054,157.4l-8.042-7.971.719-.72,8.042,7.971Z" transform="translate(-32.84 -29.066)"/>
  <rect id="矩形_5783" data-name="矩形 5783" class="cls-1" width="1.018" height="16.879" transform="translate(37.294 100.649) rotate(-45)"/>
  <rect id="矩形_5784" data-name="矩形 5784" class="cls-1" width="1.018" height="16.879" transform="matrix(0.707, -0.707, 0.707, 0.707, 19.276, 96.221)"/>
  <rect id="矩形_5785" data-name="矩形 5785" class="cls-1" width="1.018" height="16.879" transform="matrix(0.707, -0.707, 0.707, 0.707, 9.855, 91.622)"/>
  <rect id="矩形_5786" data-name="矩形 5786" class="cls-1" width="23.435" height="1.019" transform="translate(64.444 85.697)"/>
  <rect id="矩形_5787" data-name="矩形 5787" class="cls-1" width="17.203" height="1.018" transform="translate(61.999 73.37)"/>
  <rect id="矩形_5788" data-name="矩形 5788" class="cls-1" width="1.018" height="64.386" transform="translate(120.74 98.052)"/>
  <rect id="矩形_5789" data-name="矩形 5789" class="cls-1" width="1.019" height="4.058" transform="translate(115.316 99.68)"/>
  <rect id="矩形_5790" data-name="矩形 5790" class="cls-1" width="17.489" height="1.019" transform="translate(71.27 168.517) rotate(-44.987)"/>
  <rect id="矩形_5791" data-name="矩形 5791" class="cls-1" width="1.019" height="35.797" transform="translate(88.523 179.273)"/>
  <rect id="矩形_5792" data-name="矩形 5792" class="cls-1" width="1.018" height="5.057" transform="translate(118.947 218.218)"/>
  <rect id="矩形_5793" data-name="矩形 5793" class="cls-1" width="1.018" height="4.555" transform="translate(92.615 218.72)"/>
  <rect id="矩形_5794" data-name="矩形 5794" class="cls-1" width="1.019" height="53.148" transform="translate(75.739 164.204)"/>
  <rect id="矩形_5795" data-name="矩形 5795" class="cls-1" width="1.018" height="23.292" transform="translate(102.365 199.983)"/>
  <rect id="矩形_5796" data-name="矩形 5796" class="cls-1" width="1.019" height="9.966" transform="translate(111.41 106.072) rotate(-44.997)"/>
  <rect id="矩形_5797" data-name="矩形 5797" class="cls-1" width="1.018" height="9.966" transform="translate(126.934 126.975) rotate(-44.997)"/>
  <rect id="矩形_5798" data-name="矩形 5798" class="cls-1" width="1.018" height="9.966" transform="translate(125.988 153.677) rotate(-44.997)"/>
  <rect id="矩形_5799" data-name="矩形 5799" class="cls-1" width="1.019" height="9.967" transform="translate(131.117 88.566) rotate(-45.003)"/>
  <path id="路径_17226" data-name="路径 17226" class="cls-1" d="M175.287,189.153l-10.432-10.491.72-.719,10.432,10.49Z" transform="translate(-32.223 -34.781)"/>
  <rect id="矩形_5800" data-name="矩形 5800" class="cls-1" width="1.018" height="9.966" transform="translate(128.797 111.024) rotate(-44.997)"/>
  <rect id="矩形_5801" data-name="矩形 5801" class="cls-1" width="1.018" height="19.825" transform="translate(118.159 112.399)"/>
  <rect id="矩形_5802" data-name="矩形 5802" class="cls-1" width="10.468" height="1.019" transform="translate(135.841 117.053)"/>
  <path id="路径_17227" data-name="路径 17227" class="cls-1" d="M150.792,193.786l13.6-13.521-.718-.72-13.6,13.52Z" transform="translate(-29.333 -35.094)"/>
  <path id="路径_17228" data-name="路径 17228" class="cls-1" d="M103.749,131.155l13.6-13.521-.72-.72-13.6,13.521Z" transform="translate(-20.138 -22.852)"/>
  <path id="路径_17229" data-name="路径 17229" class="cls-1" d="M116.265,88.964l13.6-13.521-.72-.72-13.6,13.52Z" transform="translate(-22.584 -14.605)"/>
  <path id="路径_17230" data-name="路径 17230" class="cls-1" d="M95.288,267.453,107.64,255.08l-.679-.68L94.128,267.157Z" transform="translate(-18.398 -49.725)"/>
  <path id="路径_17231" data-name="路径 17231" class="cls-1" d="M111.046,242.617l22.277-22.041-.678-.68-22.278,22.041Z" transform="translate(-21.572 -42.981)"/>
  <path id="路径_17232" data-name="路径 17232" class="cls-1" d="M162.7,209.7l11.978-11.756-.719-.721L161.98,208.981Z" transform="translate(-31.661 -38.55)"/>
  <path id="路径_17233" data-name="路径 17233" class="cls-1" d="M174.118,212.45,186.1,200.695l-.719-.722L173.4,211.73Z" transform="translate(-33.893 -39.087)"/>
  <rect id="矩形_5803" data-name="矩形 5803" class="cls-1" width="23.007" height="1.018" transform="translate(120.738 98.05) rotate(-45.077)"/>
  <path id="路径_17234" data-name="路径 17234" class="cls-1" d="M186.32,82.106l3.85-3.913-.718-.721L185.6,81.386Z" transform="translate(-36.278 -15.143)"/>
  <path id="路径_17235" data-name="路径 17235" class="cls-1" d="M179.677,100.132l3.85-3.913-.718-.721-3.851,3.914Z" transform="translate(-34.979 -18.666)"/>
  <path id="路径_17236" data-name="路径 17236" class="cls-1" d="M174.777,117.468l3.85-3.913-.718-.721-3.852,3.914Z" transform="translate(-34.021 -22.055)"/>
  <rect id="矩形_5804" data-name="矩形 5804" class="cls-1" width="13.849" height="1.019" transform="matrix(0.707, -0.707, 0.707, 0.707, 115.315, 99.706)"/>
  <rect id="矩形_5805" data-name="矩形 5805" class="cls-1" width="23.435" height="1.019" transform="translate(43.477 115.162)"/>
  <rect id="矩形_5806" data-name="矩形 5806" class="cls-1" width="12.508" height="1.019" transform="translate(137.833 67.591)"/>
  <rect id="矩形_5807" data-name="矩形 5807" class="cls-1" width="1.017" height="8.352" transform="translate(78.693 69.054)"/>
  <rect id="矩形_5808" data-name="矩形 5808" class="cls-1" width="13.096" height="1.019" transform="translate(66.613 69.054)"/>
  <rect id="矩形_5809" data-name="矩形 5809" class="cls-1" width="16.879" height="1.018" transform="translate(31.544 127.098) rotate(-45)"/>
  <rect id="矩形_5810" data-name="矩形 5810" class="cls-1" width="16.879" height="1.018" transform="translate(37.871 141.206) rotate(-45)"/>
  <rect id="矩形_5811" data-name="矩形 5811" class="cls-1" width="1.019" height="14.571" transform="translate(78.429 91.087)"/>
  <rect id="矩形_5812" data-name="矩形 5812" class="cls-1" width="10.048" height="1.018" transform="translate(65.165 92.806) rotate(-45.026)"/>
  <rect id="矩形_5813" data-name="矩形 5813" class="cls-1" width="10.048" height="1.018" transform="translate(65.736 104.903) rotate(-45.026)"/>
  <rect id="矩形_5814" data-name="矩形 5814" class="cls-1" width="10.048" height="1.018" transform="matrix(0.707, -0.707, 0.707, 0.707, 30.507, 107.436)"/>
  <rect id="矩形_5815" data-name="矩形 5815" class="cls-1" width="10.048" height="1.019" transform="matrix(0.707, -0.707, 0.707, 0.707, 60.438, 47.043)"/>
  <rect id="矩形_5816" data-name="矩形 5816" class="cls-1" width="10.048" height="1.018" transform="translate(67.19 58.383) rotate(-45.026)"/>
  <rect id="矩形_5817" data-name="矩形 5817" class="cls-1" width="10.048" height="1.018" transform="translate(82.717 76.849) rotate(-45.023)"/>
  <rect id="矩形_5818" data-name="矩形 5818" class="cls-1" width="10.048" height="1.018" transform="matrix(0.707, -0.707, 0.707, 0.707, 131.062, 103.961)"/>
  <rect id="矩形_5819" data-name="矩形 5819" class="cls-1" width="10.047" height="1.018" transform="translate(59.093 58.469) rotate(-45.023)"/>
  <rect id="矩形_5820" data-name="矩形 5820" class="cls-1" width="10.048" height="1.018" transform="translate(71.101 42.021) rotate(-45.023)"/>
  <rect id="矩形_5821" data-name="矩形 5821" class="cls-1" width="1.018" height="10.048" transform="translate(141.88 121.037) rotate(-44.98)"/>
  <path id="路径_17237" data-name="路径 17237" class="cls-1" d="M155.855,158.736l3.85-3.914-.718-.72-3.852,3.914Z" transform="translate(-30.323 -30.121)"/>
  <path id="路径_17238" data-name="路径 17238" class="cls-1" d="M128.242,162.78l3.85-3.913-.718-.721-3.851,3.914Z" transform="translate(-24.926 -30.911)"/>
  <rect id="矩形_5822" data-name="矩形 5822" class="cls-1" width="5.024" height="1.018" transform="translate(97.782 19.884) rotate(-45.02)"/>
  <rect id="矩形_5823" data-name="矩形 5823" class="cls-1" width="5.024" height="1.018" transform="matrix(0.707, -0.707, 0.707, 0.707, 73.599, 18.6)"/>
  <rect id="矩形_5824" data-name="矩形 5824" class="cls-1" width="21.274" height="1.018" transform="matrix(0.707, -0.707, 0.707, 0.707, 91.543, 49.179)"/>
  <rect id="矩形_5825" data-name="矩形 5825" class="cls-1" width="1.018" height="10.213" transform="translate(124.059 46.21) rotate(-44.949)"/>
  <rect id="矩形_5826" data-name="矩形 5826" class="cls-1" width="1.018" height="10.213" transform="translate(142.256 57.653) rotate(-44.949)"/>
  <rect id="矩形_5827" data-name="矩形 5827" class="cls-1" width="0.708" height="7.106" transform="translate(114.701 18.421) rotate(-44.94)"/>
  <rect id="矩形_5828" data-name="矩形 5828" class="cls-1" width="0.708" height="7.106" transform="matrix(0.708, -0.706, 0.706, 0.708, 116.897, 16.201)"/>
  <rect id="矩形_5829" data-name="矩形 5829" class="cls-1" width="1.018" height="17.25" transform="translate(94.044 17.028) rotate(-44.97)"/>
  <rect id="矩形_5830" data-name="矩形 5830" class="cls-1" width="1.018" height="10.213" transform="matrix(0.708, -0.706, 0.706, 0.708, 92.027, 6.208)"/>
  <rect id="矩形_5831" data-name="矩形 5831" class="cls-1" width="1.018" height="10.212" transform="translate(63.79 7.467) rotate(-44.955)"/>
  <rect id="矩形_5832" data-name="矩形 5832" class="cls-1" width="1.019" height="16.283" transform="translate(124.059 29.908)"/>
  <rect id="矩形_5833" data-name="矩形 5833" class="cls-1" width="1.019" height="16.283" transform="translate(127.778 33.547)"/>
  <rect id="矩形_5834" data-name="矩形 5834" class="cls-1" width="1.019" height="19.097" transform="translate(149.322 49.003)"/>
  <rect id="矩形_5835" data-name="矩形 5835" class="cls-1" width="1.019" height="6.579" transform="translate(137.833 67.607)"/>
  <rect id="矩形_5836" data-name="矩形 5836" class="cls-1" width="1.019" height="6.579" transform="translate(139.49 61.357)"/>
  <rect id="矩形_5837" data-name="矩形 5837" class="cls-1" width="1.019" height="6.579" transform="translate(141.221 48.062)"/>
  <rect id="矩形_5838" data-name="矩形 5838" class="cls-1" width="19.228" height="1.017" transform="translate(115.676 86.071) rotate(-44.975)"/>
  <rect id="矩形_5839" data-name="矩形 5839" class="cls-1" width="9.542" height="1.019" transform="matrix(0.708, -0.707, 0.707, 0.708, 125.16, 59.384)"/>
  <rect id="矩形_5840" data-name="矩形 5840" class="cls-1" width="23.434" height="1.018" transform="translate(56.014 104.64)"/>
  <rect id="矩形_5841" data-name="矩形 5841" class="cls-1" width="1.019" height="63.873" transform="translate(96.238 77.199)"/>
  <rect id="矩形_5842" data-name="矩形 5842" class="cls-1" width="1.019" height="63.873" transform="translate(151.184 97.757)"/>
  <rect id="矩形_5843" data-name="矩形 5843" class="cls-1" width="1.019" height="30.826" transform="translate(100.081 70.356)"/>
  <rect id="矩形_5844" data-name="矩形 5844" class="cls-1" width="1.018" height="33.76" transform="translate(100.329 144.724)"/>
  <path id="路径_17239" data-name="路径 17239" class="cls-1" d="M120.886,181.707l-4.39-4.372.72-.719,4.39,4.371Z" transform="translate(-22.771 -34.522)"/>
  <rect id="矩形_5845" data-name="矩形 5845" class="cls-1" width="1.018" height="76.809" transform="translate(97.817 146.466)"/>
  <rect id="矩形_5846" data-name="矩形 5846" class="cls-1" width="1.019" height="41.186" transform="translate(129.932 171.6)"/>
  <path id="路径_17240" data-name="路径 17240" class="cls-1" d="M152.552,212.948l-4.39-4.371.719-.718,4.39,4.369Z" transform="translate(-28.96 -40.628)"/>
  <path id="路径_17241" data-name="路径 17241" class="cls-1" d="M114.421,271.516l-4.39-4.371.72-.718,4.39,4.369Z" transform="translate(-21.507 -52.076)"/>
  <rect id="矩形_5847" data-name="矩形 5847" class="cls-1" width="1.018" height="42.698" transform="translate(123.294 171.6)"/>
  <rect id="矩形_5848" data-name="矩形 5848" class="cls-1" width="1.019" height="14.855" transform="translate(119.202 167.949)"/>
  <rect id="矩形_5849" data-name="矩形 5849" class="cls-1" width="1.018" height="16.285" transform="translate(117.422 140.319)"/>
  <rect id="矩形_5850" data-name="矩形 5850" class="cls-1" width="18.607" height="1.018" transform="translate(66.196 64.542)"/>
  <rect id="矩形_5851" data-name="矩形 5851" class="cls-1" width="23.435" height="1.019" transform="translate(14.895 120.747)"/>
  <rect id="矩形_5852" data-name="矩形 5852" class="cls-1" width="13.608" height="8.437" transform="translate(131.117 76.008)"/>
  <rect id="矩形_5853" data-name="矩形 5853" class="cls-1" width="8.312" height="8.437" transform="translate(137.921 103.106)"/>
  <path id="路径_17242" data-name="路径 17242" class="cls-1" d="M84.372,182.867h6.794v-6.9H84.372Zm5.017-1.8h-3.24v-3.289h3.24Z" transform="translate(-16.491 -34.396)"/>
  <rect id="矩形_5854" data-name="矩形 5854" class="cls-1" width="4.858" height="4.931" transform="translate(35.901 128.851)"/>
  <rect id="矩形_5855" data-name="矩形 5855" class="cls-1" width="3.782" height="8.437" transform="translate(105.819 53.17)"/>
  <rect id="矩形_5856" data-name="矩形 5856" class="cls-1" width="3.771" height="2.005" transform="translate(140.954 72.902)"/>
  <rect id="矩形_5857" data-name="矩形 5857" class="cls-1" width="3.771" height="2.005" transform="translate(136.429 72.902)"/>
  <g id="组_8013" data-name="组 8013">
    <g id="组_8012" data-name="组 8012" class="cls-2">
      <path id="路径_17243" data-name="路径 17243" class="cls-1" d="M79.941,182.3a3.231,3.231,0,1,1-3.231-3.231,3.231,3.231,0,0,1,3.231,3.231" transform="translate(-14.363 -35)"/>
      <rect id="矩形_5858" data-name="矩形 5858" class="cls-1" width="1.914" height="1.914" transform="translate(129.428 170.159)"/>
      <rect id="矩形_5859" data-name="矩形 5859" class="cls-1" width="3.083" height="3.083" transform="translate(12.998 119.715)"/>
      <rect id="矩形_5860" data-name="矩形 5860" class="cls-1" width="3.083" height="3.083" transform="translate(21.415 102.633)"/>
      <rect id="矩形_5861" data-name="矩形 5861" class="cls-1" width="2.035" height="2.035" transform="translate(20.922 112.103)"/>
      <rect id="矩形_5862" data-name="矩形 5862" class="cls-1" width="4.715" height="1.033" transform="translate(96.121 62.657)"/>
      <rect id="矩形_5863" data-name="矩形 5863" class="cls-1" width="1.032" height="4.715" transform="translate(97.962 60.817)"/>
      <rect id="矩形_5864" data-name="矩形 5864" class="cls-1" width="4.715" height="1.033" transform="translate(149.007 43.161)"/>
      <rect id="矩形_5865" data-name="矩形 5865" class="cls-1" width="1.032" height="4.715" transform="translate(150.849 41.32)"/>
      <rect id="矩形_5866" data-name="矩形 5866" class="cls-1" width="4.715" height="1.034" transform="translate(77.352 133.505)"/>
      <rect id="矩形_5867" data-name="矩形 5867" class="cls-1" width="1.032" height="4.715" transform="translate(79.193 131.664)"/>
      <rect id="矩形_5868" data-name="矩形 5868" class="cls-1" width="3.106" height="0.682" transform="translate(125.761 143.903)"/>
      <rect id="矩形_5869" data-name="矩形 5869" class="cls-1" width="0.681" height="3.106" transform="translate(126.975 142.691)"/>
      <path id="路径_17244" data-name="路径 17244" class="cls-1" d="M155.731,219.822l1.92-1.839,1.92,1.839Z" transform="translate(-30.439 -42.607)"/>
      <rect id="矩形_5870" data-name="矩形 5870" class="cls-1" width="1.278" height="5.045" transform="translate(126.573 177.002)"/>
      <path id="路径_17245" data-name="路径 17245" class="cls-1" d="M110.263,133.482l.866.829.866-.829Z" transform="translate(-21.552 -26.091)"/>
      <rect id="矩形_5871" data-name="矩形 5871" class="cls-1" width="0.577" height="2.277" transform="translate(89.288 105.21)"/>
      <path id="路径_17246" data-name="路径 17246" class="cls-1" d="M148.788,74.727l.866.829.866-.829Z" transform="translate(-29.082 -14.606)"/>
      <rect id="矩形_5872" data-name="矩形 5872" class="cls-1" width="0.577" height="2.277" transform="translate(120.283 57.94)"/>
      <path id="路径_17247" data-name="路径 17247" class="cls-1" d="M177.019,80.735l.866.829.866-.829Z" transform="translate(-34.6 -15.781)"/>
      <rect id="矩形_5873" data-name="矩形 5873" class="cls-1" width="0.577" height="2.277" transform="translate(142.997 62.773)"/>
      <path id="路径_17248" data-name="路径 17248" class="cls-1" d="M76.872,100.506l1.572,1.505,1.572-1.505Z" transform="translate(-15.025 -19.645)"/>
      <rect id="矩形_5874" data-name="矩形 5874" class="cls-1" width="1.047" height="4.131" transform="translate(62.895 76.904)"/>
      <path id="路径_17249" data-name="路径 17249" class="cls-1" d="M145.112,247.516l1.92-1.839,1.92,1.839Z" transform="translate(-28.364 -48.02)"/>
      <rect id="矩形_5875" data-name="矩形 5875" class="cls-1" width="1.278" height="5.045" transform="translate(118.029 199.282)"/>
      <rect id="矩形_5876" data-name="矩形 5876" class="cls-1" width="5.554" height="5.554" transform="matrix(0.707, -0.707, 0.707, 0.707, 130.442, 152.291)"/>
      <rect id="矩形_5877" data-name="矩形 5877" class="cls-1" width="2.878" height="2.878" transform="translate(127.187 114.929) rotate(-45)"/>
      <rect id="矩形_5878" data-name="矩形 5878" class="cls-1" width="4.164" height="4.164" transform="translate(41.255 141.153) rotate(-45)"/>
      <rect id="矩形_5879" data-name="矩形 5879" class="cls-1" width="4.782" height="4.782" transform="translate(27.929 101.978) rotate(-45)"/>
      <rect id="矩形_5880" data-name="矩形 5880" class="cls-1" width="2.127" height="2.127" transform="matrix(0.707, -0.707, 0.707, 0.707, 9.147, 99.624)"/>
      <path id="路径_17250" data-name="路径 17250" class="cls-1" d="M12.069,117.837l-4.821,4.819,4.821,4.82,4.819-4.82Zm0,7.633-2.813-2.813,2.813-2.814,2.813,2.814Z" transform="translate(-1.417 -23.033)"/>
      <rect id="矩形_5881" data-name="矩形 5881" class="cls-1" width="4.164" height="4.164" transform="translate(149.082 73.118) rotate(-45)"/>
      <rect id="矩形_5882" data-name="矩形 5882" class="cls-1" width="3.558" height="3.558" transform="translate(143.16 42.445) rotate(-44.982)"/>
      <rect id="矩形_5883" data-name="矩形 5883" class="cls-1" width="5.896" height="5.896" transform="matrix(0.707, -0.707, 0.707, 0.707, 123.303, 24.182)"/>
      <path id="路径_17251" data-name="路径 17251" class="cls-1" d="M122.617,0,118.67,3.946l3.947,3.949,3.948-3.949Zm-2.558,3.946,2.558-2.558,2.558,2.558-2.558,2.56Z" transform="translate(-23.195)"/>
      <rect id="矩形_5884" data-name="矩形 5884" class="cls-1" width="4.162" height="4.162" transform="matrix(0.707, -0.707, 0.707, 0.707, 122.886, 53.437)"/>
      <rect id="矩形_5885" data-name="矩形 5885" class="cls-1" width="4.164" height="4.164" transform="translate(65.316 38.546) rotate(-45)"/>
      <rect id="矩形_5886" data-name="矩形 5886" class="cls-1" width="1.555" height="12.346" transform="translate(102.079 77.569)"/>
      <path id="路径_17252" data-name="路径 17252" class="cls-1" d="M81.388,95.588v7.654h7.681Z" transform="translate(-15.908 -18.684)"/>
      <rect id="矩形_5887" data-name="矩形 5887" class="cls-1" width="9.975" height="2.573" transform="translate(54.968 117.179)"/>
      <path id="路径_17253" data-name="路径 17253" class="cls-1" d="M81.049,8.464A1.555,1.555,0,1,1,79.493,6.91a1.556,1.556,0,0,1,1.555,1.554" transform="translate(-15.234 -1.351)"/>
      <path id="路径_17254" data-name="路径 17254" class="cls-1" d="M86.567,71.32a2.033,2.033,0,1,1-2.033-2.032,2.033,2.033,0,0,1,2.033,2.032" transform="translate(-16.126 -13.543)"/>
      <path id="路径_17255" data-name="路径 17255" class="cls-1" d="M83.69,64.263a1.555,1.555,0,1,1-1.556-1.555,1.555,1.555,0,0,1,1.556,1.555" transform="translate(-15.75 -12.257)"/>
      <path id="路径_17256" data-name="路径 17256" class="cls-1" d="M79.117,35.722a1.555,1.555,0,1,1-1.555-1.555,1.555,1.555,0,0,1,1.555,1.555" transform="translate(-14.856 -6.678)"/>
      <path id="路径_17257" data-name="路径 17257" class="cls-1" d="M105.03,94.937a1.555,1.555,0,1,1-1.555-1.555,1.555,1.555,0,0,1,1.555,1.555" transform="translate(-19.921 -18.253)"/>
      <path id="路径_17258" data-name="路径 17258" class="cls-1" d="M165.121,128.636a1.555,1.555,0,1,1-1.555-1.556,1.555,1.555,0,0,1,1.555,1.556" transform="translate(-31.667 -24.839)"/>
      <path id="路径_17259" data-name="路径 17259" class="cls-1" d="M155.245,135.947a.674.674,0,1,1-.674-.674.674.674,0,0,1,.674.674" transform="translate(-30.081 -26.441)"/>
      <path id="路径_17260" data-name="路径 17260" class="cls-1" d="M159.322,132.7a.674.674,0,1,1-.674-.674.674.674,0,0,1,.674.674" transform="translate(-30.878 -25.806)"/>
      <path id="路径_17261" data-name="路径 17261" class="cls-1" d="M120.8,40.114a1.555,1.555,0,1,1-1.555-1.555,1.554,1.554,0,0,1,1.555,1.555" transform="translate(-23.003 -7.537)"/>
      <path id="路径_17262" data-name="路径 17262" class="cls-1" d="M133.323,61.1a1.555,1.555,0,1,1-1.555-1.555,1.555,1.555,0,0,1,1.555,1.555" transform="translate(-25.452 -11.639)"/>
      <path id="路径_17263" data-name="路径 17263" class="cls-1" d="M151.736,80.479a1.555,1.555,0,1,1-1.555-1.555,1.555,1.555,0,0,1,1.555,1.555" transform="translate(-29.051 -15.427)"/>
      <path id="路径_17264" data-name="路径 17264" class="cls-1" d="M171.809,54.715a1.126,1.126,0,1,1-1.125-1.126,1.126,1.126,0,0,1,1.125,1.126" transform="translate(-33.142 -10.475)"/>
      <path id="路径_17265" data-name="路径 17265" class="cls-1" d="M174.71,51.086a1.126,1.126,0,1,1-1.126-1.126,1.126,1.126,0,0,1,1.126,1.126" transform="translate(-33.709 -9.765)"/>
      <path id="路径_17266" data-name="路径 17266" class="cls-1" d="M177.612,47.457a1.126,1.126,0,1,1-1.126-1.126,1.126,1.126,0,0,1,1.126,1.126" transform="translate(-34.276 -9.056)"/>
      <path id="路径_17267" data-name="路径 17267" class="cls-1" d="M118.751,73.326a1,1,0,1,1-1-1,1,1,0,0,1,1,1" transform="translate(-22.82 -14.137)"/>
      <path id="路径_17268" data-name="路径 17268" class="cls-1" d="M158.557,108.59A1.555,1.555,0,1,1,157,107.035a1.556,1.556,0,0,1,1.555,1.555" transform="translate(-30.384 -20.921)"/>
      <path id="路径_17269" data-name="路径 17269" class="cls-1" d="M151.736,112.456a1.555,1.555,0,1,1-1.555-1.555,1.555,1.555,0,0,1,1.555,1.555" transform="translate(-29.051 -21.677)"/>
      <path id="路径_17270" data-name="路径 17270" class="cls-1" d="M148.676,163.97a1.555,1.555,0,1,1-1.556-1.555,1.555,1.555,0,0,1,1.556,1.555" transform="translate(-28.453 -31.746)"/>
      <path id="路径_17271" data-name="路径 17271" class="cls-1" d="M145.059,155.214a1.555,1.555,0,1,1-1.554-1.555,1.555,1.555,0,0,1,1.554,1.555" transform="translate(-27.746 -30.034)"/>
      <path id="路径_17272" data-name="路径 17272" class="cls-1" d="M124.9,135.09a1.555,1.555,0,1,1-1.555-1.555,1.556,1.556,0,0,1,1.555,1.555" transform="translate(-23.806 -26.101)"/>
      <path id="路径_17273" data-name="路径 17273" class="cls-1" d="M131.922,89.238a1.555,1.555,0,1,1-1.556-1.555,1.556,1.556,0,0,1,1.556,1.555" transform="translate(-25.178 -17.139)"/>
      <path id="路径_17274" data-name="路径 17274" class="cls-1" d="M162.423,168.654a1.555,1.555,0,1,1-1.556-1.555,1.557,1.557,0,0,1,1.556,1.555" transform="translate(-31.14 -32.661)"/>
      <path id="路径_17275" data-name="路径 17275" class="cls-1" d="M172.7,172.691a1.556,1.556,0,1,1-1.556-1.554,1.558,1.558,0,0,1,1.556,1.554" transform="translate(-33.148 -33.451)"/>
      <path id="路径_17276" data-name="路径 17276" class="cls-1" d="M179.568,196.2a2.385,2.385,0,1,1-2.385-2.382,2.386,2.386,0,0,1,2.385,2.382" transform="translate(-34.166 -37.884)"/>
      <path id="路径_17277" data-name="路径 17277" class="cls-1" d="M182.284,145.627a1.555,1.555,0,1,1-1.556-1.556,1.556,1.556,0,0,1,1.556,1.556" transform="translate(-35.022 -28.16)"/>
      <path id="路径_17278" data-name="路径 17278" class="cls-1" d="M166.347,132.862a1.555,1.555,0,1,1-1.556-1.555,1.557,1.557,0,0,1,1.556,1.555" transform="translate(-31.907 -25.665)"/>
      <path id="路径_17279" data-name="路径 17279" class="cls-1" d="M178.047,149.635a1.555,1.555,0,1,1-1.555-1.555,1.555,1.555,0,0,1,1.555,1.555" transform="translate(-34.193 -28.944)"/>
      <path id="路径_17280" data-name="路径 17280" class="cls-1" d="M185.745,157.257a1.655,1.655,0,1,1-1.656-1.657,1.655,1.655,0,0,1,1.656,1.657" transform="translate(-35.659 -30.414)"/>
      <path id="路径_17281" data-name="路径 17281" class="cls-1" d="M169.754,149.256a1.2,1.2,0,1,1-1.2-1.2,1.2,1.2,0,0,1,1.2,1.2" transform="translate(-32.71 -28.939)"/>
      <path id="路径_17282" data-name="路径 17282" class="cls-1" d="M161.534,123.039a1.555,1.555,0,1,1-1.556-1.555,1.556,1.556,0,0,1,1.556,1.555" transform="translate(-30.966 -23.745)"/>
      <path id="路径_17283" data-name="路径 17283" class="cls-1" d="M140.123,130.929a1.555,1.555,0,1,1-1.556-1.555,1.556,1.556,0,0,1,1.556,1.555" transform="translate(-26.781 -25.288)"/>
      <path id="路径_17284" data-name="路径 17284" class="cls-1" d="M123.471,65.488a1.555,1.555,0,1,1-1.555-1.554,1.556,1.556,0,0,1,1.555,1.554" transform="translate(-23.526 -12.497)"/>
      <path id="路径_17285" data-name="路径 17285" class="cls-1" d="M102.65,62.54a2.661,2.661,0,1,1-2.661-2.66,2.663,2.663,0,0,1,2.661,2.66" transform="translate(-19.024 -11.704)"/>
      <path id="路径_17286" data-name="路径 17286" class="cls-1" d="M135.141,53.589a1.555,1.555,0,1,1-1.555-1.555,1.556,1.556,0,0,1,1.555,1.555" transform="translate(-25.807 -10.171)"/>
      <path id="路径_17287" data-name="路径 17287" class="cls-1" d="M191.9,77.585a1.555,1.555,0,1,1-1.556-1.555,1.556,1.556,0,0,1,1.556,1.555" transform="translate(-36.901 -14.861)"/>
      <path id="路径_17288" data-name="路径 17288" class="cls-1" d="M187.411,61a1.556,1.556,0,1,1-1.557-1.555A1.557,1.557,0,0,1,187.411,61" transform="translate(-36.024 -11.619)"/>
      <path id="路径_17289" data-name="路径 17289" class="cls-1" d="M185.257,95.61a1.555,1.555,0,1,1-1.556-1.555,1.557,1.557,0,0,1,1.556,1.555" transform="translate(-35.603 -18.384)"/>
      <path id="路径_17290" data-name="路径 17290" class="cls-1" d="M190.747,106.571a2.008,2.008,0,1,1-2.008-2.007,2.009,2.009,0,0,1,2.008,2.007" transform="translate(-36.499 -20.438)"/>
      <path id="路径_17291" data-name="路径 17291" class="cls-1" d="M190.976,117.978a3.34,3.34,0,1,1-3.34-3.339,3.342,3.342,0,0,1,3.34,3.339" transform="translate(-36.023 -22.407)"/>
      <path id="路径_17292" data-name="路径 17292" class="cls-1" d="M180.9,112.4a1.771,1.771,0,1,1-1.772-1.771A1.772,1.772,0,0,1,180.9,112.4" transform="translate(-34.667 -21.624)"/>
      <path id="路径_17293" data-name="路径 17293" class="cls-1" d="M160.009,209.388a1.555,1.555,0,1,1-1.556-1.555,1.556,1.556,0,0,1,1.556,1.555" transform="translate(-30.668 -40.623)"/>
      <path id="路径_17294" data-name="路径 17294" class="cls-1" d="M126.059,173.938a1.555,1.555,0,1,1-1.645-1.459,1.554,1.554,0,0,1,1.645,1.459" transform="translate(-24.032 -33.712)"/>
      <path id="路径_17295" data-name="路径 17295" class="cls-1" d="M126.512,221.374a1.555,1.555,0,1,1-1.646-1.458,1.556,1.556,0,0,1,1.646,1.458" transform="translate(-24.121 -42.985)"/>
      <path id="路径_17296" data-name="路径 17296" class="cls-1" d="M118.281,176.908a1.555,1.555,0,1,1-1.646-1.459,1.556,1.556,0,0,1,1.646,1.459" transform="translate(-22.512 -34.293)"/>
      <path id="路径_17297" data-name="路径 17297" class="cls-1" d="M118.507,212.127a1.555,1.555,0,1,1-1.645-1.459,1.556,1.556,0,0,1,1.645,1.459" transform="translate(-22.556 -41.177)"/>
      <path id="路径_17298" data-name="路径 17298" class="cls-1" d="M116.886,256.218a1.555,1.555,0,1,1-1.646-1.459,1.556,1.556,0,0,1,1.646,1.459" transform="translate(-22.239 -49.795)"/>
      <path id="路径_17299" data-name="路径 17299" class="cls-1" d="M118.507,185.546a1.555,1.555,0,1,1-1.645-1.459,1.557,1.557,0,0,1,1.645,1.459" transform="translate(-22.556 -35.981)"/>
      <path id="路径_17300" data-name="路径 17300" class="cls-1" d="M76.507,158.987a1.555,1.555,0,1,1-1.645-1.459,1.557,1.557,0,0,1,1.645,1.459" transform="translate(-14.347 -30.79)"/>
      <path id="路径_17301" data-name="路径 17301" class="cls-1" d="M63.976,160.206a1.555,1.555,0,1,1-1.646-1.459,1.556,1.556,0,0,1,1.646,1.459" transform="translate(-11.897 -31.028)"/>
      <path id="路径_17302" data-name="路径 17302" class="cls-1" d="M91.809,158.03a1.555,1.555,0,1,1-1.646-1.459,1.556,1.556,0,0,1,1.646,1.459" transform="translate(-17.338 -30.603)"/>
      <path id="路径_17303" data-name="路径 17303" class="cls-1" d="M151.042,106.657a1.555,1.555,0,1,1-1.555-1.555,1.555,1.555,0,0,1,1.555,1.555" transform="translate(-28.915 -20.543)"/>
      <path id="路径_17304" data-name="路径 17304" class="cls-1" d="M156.01,36.8a1.555,1.555,0,1,1-1.554-1.555A1.555,1.555,0,0,1,156.01,36.8" transform="translate(-29.886 -6.888)"/>
      <path id="路径_17305" data-name="路径 17305" class="cls-1" d="M118.254,229.045a1.555,1.555,0,1,1-1.555-1.556,1.555,1.555,0,0,1,1.555,1.556" transform="translate(-22.506 -44.465)"/>
      <path id="路径_17306" data-name="路径 17306" class="cls-1" d="M99.292,112.838a1.555,1.555,0,1,1-1.555-1.555,1.555,1.555,0,0,1,1.555,1.555" transform="translate(-18.8 -21.752)"/>
      <path id="路径_17307" data-name="路径 17307" class="cls-1" d="M40.866,158.229a1.555,1.555,0,1,1-1.556-1.555,1.555,1.555,0,0,1,1.556,1.555" transform="translate(-7.38 -30.624)"/>
      <path id="路径_17308" data-name="路径 17308" class="cls-1" d="M45.19,141.261a1.555,1.555,0,1,1-1.555-1.555,1.556,1.556,0,0,1,1.555,1.555" transform="translate(-8.225 -27.307)"/>
      <path id="路径_17309" data-name="路径 17309" class="cls-1" d="M95.051,134.955A1.555,1.555,0,1,1,93.5,133.4a1.556,1.556,0,0,1,1.555,1.555" transform="translate(-17.971 -26.075)"/>
      <path id="路径_17310" data-name="路径 17310" class="cls-1" d="M92.205,152.372a1.555,1.555,0,1,1-1.555-1.556,1.556,1.556,0,0,1,1.555,1.556" transform="translate(-17.415 -29.479)"/>
      <path id="路径_17311" data-name="路径 17311" class="cls-1" d="M91.9,121.893a1.555,1.555,0,1,1-1.555-1.555,1.556,1.556,0,0,1,1.555,1.555" transform="translate(-17.354 -23.521)"/>
      <path id="路径_17312" data-name="路径 17312" class="cls-1" d="M69.5,151.474a1.555,1.555,0,1,1-1.555-1.556,1.556,1.556,0,0,1,1.555,1.556" transform="translate(-12.977 -29.303)"/>
      <path id="路径_17313" data-name="路径 17313" class="cls-1" d="M72.751,173.94a1.555,1.555,0,1,1-1.555-1.556,1.556,1.556,0,0,1,1.555,1.556" transform="translate(-13.612 -33.694)"/>
      <path id="路径_17314" data-name="路径 17314" class="cls-1" d="M93.828,101.327a1.555,1.555,0,1,1-1.555-1.555,1.556,1.556,0,0,1,1.555,1.555" transform="translate(-17.732 -19.502)"/>
      <path id="路径_17315" data-name="路径 17315" class="cls-1" d="M72.9,124.515a.65.65,0,1,1-.65-.65.65.65,0,0,1,.65.65" transform="translate(-13.996 -24.211)"/>
      <path id="路径_17316" data-name="路径 17316" class="cls-1" d="M90.6,96.748a1.555,1.555,0,1,1-1.555-1.555A1.556,1.556,0,0,1,90.6,96.748" transform="translate(-17.102 -18.607)"/>
      <path id="路径_17317" data-name="路径 17317" class="cls-1" d="M77.9,91.449a1.555,1.555,0,1,1-1.555-1.555A1.555,1.555,0,0,1,77.9,91.449" transform="translate(-14.619 -17.571)"/>
      <path id="路径_17318" data-name="路径 17318" class="cls-1" d="M91.795,172.312a2,2,0,1,1,2-2,2.006,2.006,0,0,1-2,2m0-3.109a1.105,1.105,0,1,0,1.105,1.105,1.106,1.106,0,0,0-1.105-1.105" transform="translate(-17.55 -32.897)"/>
      <path id="路径_17319" data-name="路径 17319" class="cls-1" d="M99.352,158.613a2,2,0,1,1,2-2,2.007,2.007,0,0,1-2,2m0-3.109a1.1,1.1,0,1,0,1.105,1.1,1.106,1.106,0,0,0-1.105-1.1" transform="translate(-19.028 -30.219)"/>
      <path id="路径_17320" data-name="路径 17320" class="cls-1" d="M78.947,176.409a2,2,0,1,1,2-2,2.006,2.006,0,0,1-2,2m0-3.109a1.105,1.105,0,1,0,1.105,1.105,1.106,1.106,0,0,0-1.105-1.105" transform="translate(-15.039 -33.698)"/>
      <path id="路径_17321" data-name="路径 17321" class="cls-1" d="M80.466,199.473a2,2,0,1,1,2-2,2.007,2.007,0,0,1-2,2m0-3.109a1.1,1.1,0,1,0,1.1,1.1,1.106,1.106,0,0,0-1.1-1.1" transform="translate(-15.336 -38.206)"/>
      <path id="路径_17322" data-name="路径 17322" class="cls-1" d="M52.6,156.758a2,2,0,1,1,2-2,2.007,2.007,0,0,1-2,2m0-3.109a1.1,1.1,0,1,0,1.105,1.1,1.106,1.106,0,0,0-1.105-1.1" transform="translate(-9.889 -29.857)"/>
      <path id="路径_17323" data-name="路径 17323" class="cls-1" d="M37.906,140.821a2,2,0,1,1,2-2,2.008,2.008,0,0,1-2,2m0-3.11a1.1,1.1,0,1,0,1.105,1.1,1.106,1.106,0,0,0-1.105-1.1" transform="translate(-7.017 -26.741)"/>
      <path id="路径_17324" data-name="路径 17324" class="cls-1" d="M78.1,108.668a2,2,0,1,1,2-2,2.008,2.008,0,0,1-2,2m0-3.11a1.105,1.105,0,1,0,1.105,1.105,1.106,1.106,0,0,0-1.105-1.105" transform="translate(-14.874 -20.457)"/>
      <path id="路径_17325" data-name="路径 17325" class="cls-1" d="M15.244,134.07a2,2,0,1,1,2-2,2.007,2.007,0,0,1-2,2m0-3.109a1.1,1.1,0,1,0,1.1,1.105,1.106,1.106,0,0,0-1.1-1.105" transform="translate(-2.588 -25.422)"/>
      <path id="路径_17326" data-name="路径 17326" class="cls-1" d="M2,126.04a2,2,0,1,1,2-2,2.007,2.007,0,0,1-2,2m0-3.11a1.105,1.105,0,1,0,1.105,1.105A1.106,1.106,0,0,0,2,122.93" transform="translate(0 -23.852)"/>
      <path id="路径_17327" data-name="路径 17327" class="cls-1" d="M22.761,119.16a2,2,0,1,1,2-2,2.006,2.006,0,0,1-2,2m0-3.11a1.105,1.105,0,1,0,1.105,1.106,1.107,1.107,0,0,0-1.105-1.106" transform="translate(-4.057 -22.507)"/>
      <path id="路径_17328" data-name="路径 17328" class="cls-1" d="M172.718,120.971a2,2,0,1,1,2-2,2.007,2.007,0,0,1-2,2m0-3.11a1.105,1.105,0,1,0,1.105,1.106,1.107,1.107,0,0,0-1.105-1.106" transform="translate(-33.368 -22.861)"/>
      <path id="路径_17329" data-name="路径 17329" class="cls-1" d="M120.116,32.959a2,2,0,1,1,2-2,2.007,2.007,0,0,1-2,2m0-3.11a1.105,1.105,0,1,0,1.1,1.105,1.108,1.108,0,0,0-1.1-1.105" transform="translate(-23.086 -5.658)"/>
      <path id="路径_17330" data-name="路径 17330" class="cls-1" d="M100.148,29.977a2,2,0,1,1,2-2,2.007,2.007,0,0,1-2,2m0-3.11a1.105,1.105,0,1,0,1.105,1.105,1.106,1.106,0,0,0-1.105-1.105" transform="translate(-19.183 -5.076)"/>
      <path id="路径_17331" data-name="路径 17331" class="cls-1" d="M91.627,12.852a2,2,0,1,1,2-2,2.006,2.006,0,0,1-2,2m0-3.11a1.105,1.105,0,1,0,1.1,1.105,1.106,1.106,0,0,0-1.1-1.105" transform="translate(-17.518 -1.728)"/>
      <path id="路径_17332" data-name="路径 17332" class="cls-1" d="M113.3,7.416a2,2,0,1,1,2-2,2.007,2.007,0,0,1-2,2m0-3.11A1.105,1.105,0,1,0,114.4,5.412,1.107,1.107,0,0,0,113.3,4.306" transform="translate(-21.753 -0.666)"/>
      <path id="路径_17333" data-name="路径 17333" class="cls-1" d="M87.267,55.429a2,2,0,1,1,2-2,2.007,2.007,0,0,1-2,2m0-3.11a1.105,1.105,0,1,0,1.1,1.105,1.106,1.106,0,0,0-1.1-1.105" transform="translate(-16.665 -10.05)"/>
      <path id="路径_17334" data-name="路径 17334" class="cls-1" d="M77.452,19.585a2,2,0,1,1,2-2,2.007,2.007,0,0,1-2,2m0-3.11a1.105,1.105,0,1,0,1.105,1.105,1.106,1.106,0,0,0-1.105-1.105" transform="translate(-14.747 -3.044)"/>
      <path id="路径_17335" data-name="路径 17335" class="cls-1" d="M104.521,103.987a2.005,2.005,0,1,1,2-2.006,2.008,2.008,0,0,1-2,2.006m0-3.11a1.105,1.105,0,1,0,1.105,1.1,1.107,1.107,0,0,0-1.105-1.1" transform="translate(-20.038 -19.541)"/>
      <path id="路径_17336" data-name="路径 17336" class="cls-1" d="M79.818,118.608a2,2,0,1,1,2-2,2.007,2.007,0,0,1-2,2m0-3.11a1.105,1.105,0,1,0,1.105,1.105,1.106,1.106,0,0,0-1.105-1.105" transform="translate(-15.209 -22.399)"/>
      <path id="路径_17337" data-name="路径 17337" class="cls-1" d="M67.539,132.213a2.005,2.005,0,1,1,2-2,2.007,2.007,0,0,1-2,2m0-3.11a1.105,1.105,0,1,0,1.105,1.105,1.106,1.106,0,0,0-1.105-1.105" transform="translate(-12.809 -25.059)"/>
      <path id="路径_17338" data-name="路径 17338" class="cls-1" d="M104.472,125.531a2,2,0,1,1,2-2,2.008,2.008,0,0,1-2,2m0-3.11a1.105,1.105,0,1,0,1.1,1.105,1.106,1.106,0,0,0-1.1-1.105" transform="translate(-20.028 -23.753)"/>
      <path id="路径_17339" data-name="路径 17339" class="cls-1" d="M113.512,100.831a2,2,0,1,1,2-2,2.007,2.007,0,0,1-2,2m0-3.11a1.105,1.105,0,1,0,1.105,1.1,1.106,1.106,0,0,0-1.105-1.1" transform="translate(-21.795 -18.925)"/>
      <path id="路径_17340" data-name="路径 17340" class="cls-1" d="M124.542,129.085a2,2,0,1,1,2-2,2.008,2.008,0,0,1-2,2m0-3.11a1.105,1.105,0,1,0,1.105,1.105,1.106,1.106,0,0,0-1.105-1.105" transform="translate(-23.951 -24.447)"/>
      <path id="路径_17341" data-name="路径 17341" class="cls-1" d="M102.326,76.473a2,2,0,1,1,2-2,2.007,2.007,0,0,1-2,2m0-3.11a1.105,1.105,0,1,0,1.105,1.105,1.106,1.106,0,0,0-1.105-1.105" transform="translate(-19.609 -14.164)"/>
      <path id="路径_17342" data-name="路径 17342" class="cls-1" d="M80.51,87.981a2,2,0,1,1,2-2,2.007,2.007,0,0,1-2,2m0-3.11a1.105,1.105,0,1,0,1.105,1.1,1.105,1.105,0,0,0-1.105-1.1" transform="translate(-15.345 -16.413)"/>
      <path id="路径_17343" data-name="路径 17343" class="cls-1" d="M124.409,73.323a2,2,0,1,1,2-2,2.007,2.007,0,0,1-2,2m0-3.11a1.105,1.105,0,1,0,1.1,1.105,1.107,1.107,0,0,0-1.1-1.105" transform="translate(-23.925 -13.548)"/>
      <path id="路径_17344" data-name="路径 17344" class="cls-1" d="M175.676,71.481a2,2,0,1,1,2-2,2.008,2.008,0,0,1-2,2m0-3.11a1.105,1.105,0,1,0,1.105,1.105,1.106,1.106,0,0,0-1.105-1.105" transform="translate(-33.946 -13.188)"/>
      <path id="路径_17345" data-name="路径 17345" class="cls-1" d="M175.676,59.647a2,2,0,1,1,2-2,2.008,2.008,0,0,1-2,2m0-3.11a1.105,1.105,0,1,0,1.105,1.106,1.106,1.106,0,0,0-1.105-1.106" transform="translate(-33.946 -10.875)"/>
      <path id="路径_17346" data-name="路径 17346" class="cls-1" d="M127.08,21.023a2,2,0,1,1,2.006-2,2.006,2.006,0,0,1-2.006,2m0-3.11a1.105,1.105,0,1,0,1.105,1.105,1.106,1.106,0,0,0-1.105-1.105" transform="translate(-24.448 -3.326)"/>
      <path id="路径_17347" data-name="路径 17347" class="cls-1" d="M97.021,19.427a2,2,0,1,1,2.006-2,2.007,2.007,0,0,1-2.006,2m0-3.11a1.105,1.105,0,1,0,1.105,1.105,1.106,1.106,0,0,0-1.105-1.105" transform="translate(-18.572 -3.014)"/>
      <path id="路径_17348" data-name="路径 17348" class="cls-1" d="M167.546,168.6a2,2,0,1,1,2-2,2.006,2.006,0,0,1-2,2m0-3.11a1.105,1.105,0,1,0,1.105,1.106,1.106,1.106,0,0,0-1.105-1.106" transform="translate(-32.357 -32.17)"/>
      <path id="路径_17349" data-name="路径 17349" class="cls-1" d="M166.37,201.784a2,2,0,1,1,2-2,2.007,2.007,0,0,1-2,2m0-3.11a1.105,1.105,0,1,0,1.1,1.105,1.106,1.106,0,0,0-1.1-1.105" transform="translate(-32.127 -38.657)"/>
      <path id="路径_17350" data-name="路径 17350" class="cls-1" d="M171.906,218.048a2,2,0,1,1,2-2,2.006,2.006,0,0,1-2,2m0-3.109a1.105,1.105,0,1,0,1.1,1.105,1.106,1.106,0,0,0-1.1-1.105" transform="translate(-33.209 -41.837)"/>
      <path id="路径_17351" data-name="路径 17351" class="cls-1" d="M161.645,267.731a2,2,0,1,1,2-2,2.007,2.007,0,0,1-2,2m0-3.11a1.105,1.105,0,1,0,1.1,1.105,1.106,1.106,0,0,0-1.1-1.105" transform="translate(-31.203 -51.547)"/>
      <path id="路径_17352" data-name="路径 17352" class="cls-1" d="M161.17,154.61a2,2,0,1,1,2.006-2,2.006,2.006,0,0,1-2.006,2m0-3.11a1.105,1.105,0,1,0,1.105,1.106,1.106,1.106,0,0,0-1.105-1.106" transform="translate(-31.111 -29.437)"/>
      <path id="路径_17353" data-name="路径 17353" class="cls-1" d="M133.557,158.655a2,2,0,1,1,2-2,2.008,2.008,0,0,1-2,2m0-3.11a1.105,1.105,0,1,0,1.1,1.105,1.106,1.106,0,0,0-1.1-1.105" transform="translate(-25.713 -30.227)"/>
      <path id="路径_17354" data-name="路径 17354" class="cls-1" d="M145.016,92.345a2,2,0,1,1,2.006-2,2.007,2.007,0,0,1-2.006,2m0-3.11a1.105,1.105,0,1,0,1.106,1.105,1.107,1.107,0,0,0-1.106-1.105" transform="translate(-27.953 -17.266)"/>
      <path id="路径_17355" data-name="路径 17355" class="cls-1" d="M156.35,22.316a2,2,0,1,1,2-2,2.007,2.007,0,0,1-2,2m0-3.11a1.105,1.105,0,1,0,1.1,1.105,1.107,1.107,0,0,0-1.1-1.105" transform="translate(-30.168 -3.578)"/>
      <path id="路径_17356" data-name="路径 17356" class="cls-1" d="M158.968,41.183a2,2,0,1,1,2-2,2.007,2.007,0,0,1-2,2m0-3.11a1.105,1.105,0,1,0,1.1,1.105,1.108,1.108,0,0,0-1.1-1.105" transform="translate(-30.68 -7.266)"/>
      <path id="路径_17357" data-name="路径 17357" class="cls-1" d="M140.692,150.794a2,2,0,1,1,2-2,2.006,2.006,0,0,1-2,2m0-3.11a1.105,1.105,0,1,0,1.105,1.105,1.107,1.107,0,0,0-1.105-1.105" transform="translate(-27.108 -28.691)"/>
      <path id="路径_17358" data-name="路径 17358" class="cls-1" d="M138.2,140.955a2,2,0,1,1,2-2,2.007,2.007,0,0,1-2,2m0-3.11a1.105,1.105,0,1,0,1.1,1.105,1.106,1.106,0,0,0-1.1-1.105" transform="translate(-26.621 -26.768)"/>
      <path id="路径_17359" data-name="路径 17359" class="cls-1" d="M143.477,132.266a2,2,0,1,1,2-2,2.008,2.008,0,0,1-2,2m0-3.11a1.105,1.105,0,1,0,1.105,1.105,1.106,1.106,0,0,0-1.105-1.105" transform="translate(-27.652 -25.069)"/>
      <path id="路径_17360" data-name="路径 17360" class="cls-1" d="M108.108,189.784a2,2,0,1,1,2-2,2.007,2.007,0,0,1-2,2m0-3.11a1.105,1.105,0,1,0,1.105,1.1,1.106,1.106,0,0,0-1.105-1.1" transform="translate(-20.739 -36.312)"/>
      <path id="路径_17361" data-name="路径 17361" class="cls-1" d="M87.224,212.626a2,2,0,1,1,2-2,2.007,2.007,0,0,1-2,2m0-3.11a1.105,1.105,0,1,0,1.105,1.1,1.106,1.106,0,0,0-1.105-1.1" transform="translate(-16.657 -40.777)"/>
      <path id="路径_17362" data-name="路径 17362" class="cls-1" d="M148.308,230.657a2,2,0,1,1,2-2,2.007,2.007,0,0,1-2,2m0-3.11a1.105,1.105,0,1,0,1.105,1.105,1.106,1.106,0,0,0-1.105-1.105" transform="translate(-28.597 -44.301)"/>
      <path id="路径_17363" data-name="路径 17363" class="cls-1" d="M146.1,197.956a2,2,0,1,1,2-2,2.008,2.008,0,0,1-2,2m0-3.111a1.105,1.105,0,1,0,1.1,1.106,1.107,1.107,0,0,0-1.1-1.106" transform="translate(-28.164 -37.909)"/>
      <path id="路径_17364" data-name="路径 17364" class="cls-1" d="M97.364,185.669a2,2,0,1,1,2-2,2.007,2.007,0,0,1-2,2m0-3.11a1.105,1.105,0,1,0,1.105,1.105,1.107,1.107,0,0,0-1.105-1.105" transform="translate(-18.639 -35.508)"/>
      <path id="路径_17365" data-name="路径 17365" class="cls-1" d="M87.806,258.653a2,2,0,1,1,2-2,2.007,2.007,0,0,1-2,2m0-3.11a1.105,1.105,0,1,0,1.105,1.105,1.107,1.107,0,0,0-1.105-1.105" transform="translate(-16.771 -49.773)"/>
      <path id="路径_17366" data-name="路径 17366" class="cls-1" d="M94.286,276.037a2,2,0,1,1,2-2,2.007,2.007,0,0,1-2,2m0-3.11a1.105,1.105,0,1,0,1.105,1.105,1.107,1.107,0,0,0-1.105-1.105" transform="translate(-18.037 -55.171)"/>
      <path id="路径_17367" data-name="路径 17367" class="cls-1" d="M118.679,20.405a1.555,1.555,0,1,1-1.555-1.555,1.555,1.555,0,0,1,1.555,1.555" transform="translate(-22.589 -3.684)"/>
      <rect id="矩形_5888" data-name="矩形 5888" class="cls-1" width="6.69" height="3.348" transform="translate(78.937 107.197)"/>
      <rect id="矩形_5889" data-name="矩形 5889" class="cls-1" width="1.476" height="3.321" transform="translate(125.988 195.345)"/>
      <rect id="矩形_5890" data-name="矩形 5890" class="cls-1" width="1.476" height="3.321" transform="translate(125.988 200.707)"/>
      <rect id="矩形_5891" data-name="矩形 5891" class="cls-1" width="1.476" height="3.321" transform="translate(125.988 206.068)"/>
      <rect id="矩形_5892" data-name="矩形 5892" class="cls-1" width="5.912" height="2.064" transform="translate(68.489 177.974)"/>
      <rect id="矩形_5893" data-name="矩形 5893" class="cls-1" width="5.912" height="2.064" transform="translate(68.489 181.801)"/>
      <rect id="矩形_5894" data-name="矩形 5894" class="cls-1" width="5.912" height="2.064" transform="translate(68.489 185.628)"/>
      <rect id="矩形_5895" data-name="矩形 5895" class="cls-1" width="5.912" height="2.064" transform="translate(132.885 200.102)"/>
      <rect id="矩形_5896" data-name="矩形 5896" class="cls-1" width="5.912" height="2.064" transform="translate(132.885 203.929)"/>
      <rect id="矩形_5897" data-name="矩形 5897" class="cls-1" width="5.912" height="2.064" transform="translate(132.885 207.756)"/>
      <rect id="矩形_5898" data-name="矩形 5898" class="cls-1" width="5.912" height="2.064" transform="translate(68.489 189.454)"/>
      <rect id="矩形_5899" data-name="矩形 5899" class="cls-1" width="5.912" height="2.064" transform="translate(68.489 193.281)"/>
      <rect id="矩形_5900" data-name="矩形 5900" class="cls-1" width="4.657" height="1.479" transform="translate(64.444 18.738)"/>
      <rect id="矩形_5901" data-name="矩形 5901" class="cls-1" width="4.657" height="1.479" transform="translate(64.444 21.45)"/>
      <rect id="矩形_5902" data-name="矩形 5902" class="cls-1" width="4.657" height="1.479" transform="translate(64.444 24.162)"/>
      <path id="路径_17368" data-name="路径 17368" class="cls-1" d="M150.681,43.67a.855.855,0,1,1-.854-.854.854.854,0,0,1,.854.854" transform="translate(-29.118 -8.369)"/>
      <path id="路径_17369" data-name="路径 17369" class="cls-1" d="M133.325,38.9a.855.855,0,1,1-.854-.854.854.854,0,0,1,.854.854" transform="translate(-25.726 -7.436)"/>
      <path id="路径_17370" data-name="路径 17370" class="cls-1" d="M150.681,48.72a.855.855,0,1,1-.854-.854.854.854,0,0,1,.854.854" transform="translate(-29.118 -9.356)"/>
      <path id="路径_17371" data-name="路径 17371" class="cls-1" d="M150.681,53.77a.855.855,0,1,1-.854-.854.854.854,0,0,1,.854.854" transform="translate(-29.118 -10.343)"/>
      <path id="路径_17372" data-name="路径 17372" class="cls-1" d="M150.681,58.821a.855.855,0,1,1-.854-.854.854.854,0,0,1,.854.854" transform="translate(-29.118 -11.33)"/>
      <path id="路径_17373" data-name="路径 17373" class="cls-1" d="M158.028,77.252a.855.855,0,1,1-.854-.854.854.854,0,0,1,.854.854" transform="translate(-30.554 -14.933)"/>
      <path id="路径_17374" data-name="路径 17374" class="cls-1" d="M158.028,82.3a.855.855,0,1,1-.854-.854.854.854,0,0,1,.854.854" transform="translate(-30.554 -15.92)"/>
      <path id="路径_17375" data-name="路径 17375" class="cls-1" d="M114.5,80.818a.468.468,0,1,1-.468-.467.468.468,0,0,1,.468.467" transform="translate(-22.198 -15.706)"/>
      <path id="路径_17376" data-name="路径 17376" class="cls-1" d="M114.5,83.581a.468.468,0,1,1-.468-.468.468.468,0,0,1,.468.468" transform="translate(-22.198 -16.245)"/>
      <path id="路径_17377" data-name="路径 17377" class="cls-1" d="M114.5,86.345a.468.468,0,1,1-.468-.468.468.468,0,0,1,.468.468" transform="translate(-22.198 -16.786)"/>
      <path id="路径_17378" data-name="路径 17378" class="cls-1" d="M117.819,104.178a.915.915,0,1,1-.916-.916.916.916,0,0,1,.916.916" transform="translate(-22.671 -20.184)"/>
      <path id="路径_17379" data-name="路径 17379" class="cls-1" d="M117.819,109.582a.915.915,0,1,1-.916-.915.915.915,0,0,1,.916.915" transform="translate(-22.671 -21.24)"/>
      <path id="路径_17380" data-name="路径 17380" class="cls-1" d="M117.819,114.988a.915.915,0,1,1-.916-.916.915.915,0,0,1,.916.916" transform="translate(-22.671 -22.297)"/>
      <rect id="矩形_5903" data-name="矩形 5903" class="cls-1" width="6.236" height="6.236" transform="translate(110.232 89.216)"/>
      <rect id="矩形_5904" data-name="矩形 5904" class="cls-1" width="4.431" height="7.201" transform="translate(81.484 87.733)"/>
      <rect id="矩形_5905" data-name="矩形 5905" class="cls-1" width="6.464" height="0.433" transform="translate(132.886 106.893)"/>
      <rect id="矩形_5906" data-name="矩形 5906" class="cls-1" width="6.464" height="0.433" transform="translate(144.486 95.397)"/>
      <rect id="矩形_5907" data-name="矩形 5907" class="cls-1" width="7.59" height="0.433" transform="translate(142.031 52.341)"/>
      <rect id="矩形_5908" data-name="矩形 5908" class="cls-1" width="7.59" height="0.433" transform="translate(117.482 29.691)"/>
      <rect id="矩形_5909" data-name="矩形 5909" class="cls-1" width="6.464" height="0.433" transform="translate(107.895 92.117)"/>
      <rect id="矩形_5910" data-name="矩形 5910" class="cls-1" width="3.464" height="0.433" transform="translate(84.024 108.535)"/>
      <rect id="矩形_5911" data-name="矩形 5911" class="cls-1" width="3.464" height="0.433" transform="translate(66.403 115.965)"/>
      <rect id="矩形_5912" data-name="矩形 5912" class="cls-1" width="3.464" height="0.433" transform="translate(66.403 117.75)"/>
      <rect id="矩形_5913" data-name="矩形 5913" class="cls-1" width="9.898" height="0.433" transform="translate(74.126 144.806)"/>
      <rect id="矩形_5914" data-name="矩形 5914" class="cls-1" width="6.381" height="0.433" transform="translate(136.871 134.222)"/>
      <rect id="矩形_5915" data-name="矩形 5915" class="cls-1" width="8.108" height="0.434" transform="translate(143.585 146.249)"/>
      <rect id="矩形_5916" data-name="矩形 5916" class="cls-1" width="8.108" height="0.433" transform="translate(143.585 144.02)"/>
      <rect id="矩形_5917" data-name="矩形 5917" class="cls-1" width="8.108" height="0.432" transform="translate(143.585 141.791)"/>
      <rect id="矩形_5918" data-name="矩形 5918" class="cls-1" width="8.108" height="0.433" transform="translate(143.585 139.562)"/>
      <rect id="矩形_5919" data-name="矩形 5919" class="cls-1" width="8.108" height="0.434" transform="translate(143.585 137.332)"/>
      <rect id="矩形_5920" data-name="矩形 5920" class="cls-1" width="4.95" height="0.433" transform="translate(91.758 126.082)"/>
      <rect id="矩形_5921" data-name="矩形 5921" class="cls-1" width="4.95" height="0.433" transform="translate(91.758 124.064)"/>
      <rect id="矩形_5922" data-name="矩形 5922" class="cls-1" width="4.949" height="0.433" transform="translate(91.758 122.045)"/>
      <rect id="矩形_5923" data-name="矩形 5923" class="cls-1" width="4.949" height="0.433" transform="translate(91.758 120.027)"/>
      <rect id="矩形_5924" data-name="矩形 5924" class="cls-1" width="4.949" height="0.433" transform="translate(91.758 118.009)"/>
      <rect id="矩形_5925" data-name="矩形 5925" class="cls-1" width="4.949" height="0.433" transform="translate(91.758 115.99)"/>
      <rect id="矩形_5926" data-name="矩形 5926" class="cls-1" width="4.949" height="0.433" transform="translate(91.758 113.972)"/>
      <rect id="矩形_5927" data-name="矩形 5927" class="cls-1" width="4.949" height="0.433" transform="translate(128.857 65.3)"/>
      <rect id="矩形_5928" data-name="矩形 5928" class="cls-1" width="4.949" height="0.433" transform="translate(128.857 63.281)"/>
      <rect id="矩形_5929" data-name="矩形 5929" class="cls-1" width="4.949" height="0.433" transform="translate(128.857 61.262)"/>
      <rect id="矩形_5930" data-name="矩形 5930" class="cls-1" width="8.673" height="0.433" transform="translate(118.801 74.92)"/>
      <rect id="矩形_5931" data-name="矩形 5931" class="cls-1" width="9.852" height="0.433" transform="translate(118.801 72.902)"/>
      <rect id="矩形_5932" data-name="矩形 5932" class="cls-1" width="9.893" height="0.433" transform="translate(117.58 70.883)"/>
      <rect id="矩形_5933" data-name="矩形 5933" class="cls-1" width="4.949" height="0.433" transform="translate(102.205 57.522)"/>
      <rect id="矩形_5934" data-name="矩形 5934" class="cls-1" width="9.678" height="0.433" transform="translate(91.569 39.719)"/>
      <rect id="矩形_5935" data-name="矩形 5935" class="cls-1" width="8.806" height="0.433" transform="translate(97.937 20.171)"/>
      <rect id="矩形_5936" data-name="矩形 5936" class="cls-1" width="8.097" height="0.433" transform="translate(76.158 203.01)"/>
      <rect id="矩形_5937" data-name="矩形 5937" class="cls-1" width="8.097" height="0.433" transform="translate(76.158 200.991)"/>
      <rect id="矩形_5938" data-name="矩形 5938" class="cls-1" width="8.095" height="0.433" transform="translate(76.157 198.973)"/>
      <rect id="矩形_5939" data-name="矩形 5939" class="cls-1" width="8.095" height="0.433" transform="translate(76.157 196.954)"/>
      <rect id="矩形_5940" data-name="矩形 5940" class="cls-1" width="8.095" height="0.433" transform="translate(76.157 194.936)"/>
      <rect id="矩形_5941" data-name="矩形 5941" class="cls-1" width="8.095" height="0.433" transform="translate(76.157 192.918)"/>
      <rect id="矩形_5942" data-name="矩形 5942" class="cls-1" width="8.095" height="0.433" transform="translate(76.157 190.899)"/>
      <rect id="矩形_5943" data-name="矩形 5943" class="cls-1" width="4.949" height="0.433" transform="translate(91.925 132.199)"/>
      <rect id="矩形_5944" data-name="矩形 5944" class="cls-1" width="10.785" height="0.433" transform="translate(55.619 122.03)"/>
      <rect id="矩形_5945" data-name="矩形 5945" class="cls-1" width="10.014" height="0.433" transform="translate(121.328 147.942)"/>
      <rect id="矩形_5946" data-name="矩形 5946" class="cls-1" width="4.95" height="0.433" transform="translate(100.121 92.88)"/>
      <rect id="矩形_5947" data-name="矩形 5947" class="cls-1" width="4.95" height="0.433" transform="translate(75.954 45.708)"/>
      <rect id="矩形_5948" data-name="矩形 5948" class="cls-1" width="12.575" height="0.433" transform="translate(58.133 100.088)"/>
      <rect id="矩形_5949" data-name="矩形 5949" class="cls-1" width="10.872" height="0.434" transform="translate(102.713 122.675)"/>
      <rect id="矩形_5950" data-name="矩形 5950" class="cls-1" width="4.029" height="0.433" transform="translate(96.445 129.922)"/>
      <rect id="矩形_5951" data-name="矩形 5951" class="cls-1" width="3.464" height="0.433" transform="translate(66.403 119.536)"/>
      <rect id="矩形_5952" data-name="矩形 5952" class="cls-1" width="6.976" height="0.433" transform="translate(12.314 111.117)"/>
      <rect id="矩形_5953" data-name="矩形 5953" class="cls-1" width="6.976" height="0.433" transform="translate(12.314 112.903)"/>
      <rect id="矩形_5954" data-name="矩形 5954" class="cls-1" width="6.976" height="0.433" transform="translate(12.314 114.689)"/>
      <rect id="矩形_5955" data-name="矩形 5955" class="cls-1" width="0.434" height="10.687" transform="translate(139.133 83.799)"/>
      <rect id="矩形_5956" data-name="矩形 5956" class="cls-1" width="0.434" height="13.138" transform="translate(144.27 91.499)"/>
      <rect id="矩形_5957" data-name="矩形 5957" class="cls-1" width="0.434" height="12.184" transform="translate(111.571 93.438)"/>
      <rect id="矩形_5958" data-name="矩形 5958" class="cls-1" width="0.434" height="20.52" transform="translate(117.363 50.879)"/>
      <rect id="矩形_5959" data-name="矩形 5959" class="cls-1" width="0.434" height="4.814" transform="translate(78.984 59.99)"/>
      <rect id="矩形_5960" data-name="矩形 5960" class="cls-1" width="0.434" height="4.814" transform="translate(76.62 59.99)"/>
      <rect id="矩形_5961" data-name="矩形 5961" class="cls-1" width="0.434" height="4.814" transform="translate(74.257 59.99)"/>
      <rect id="矩形_5962" data-name="矩形 5962" class="cls-1" width="0.434" height="4.814" transform="translate(71.894 59.99)"/>
      <rect id="矩形_5963" data-name="矩形 5963" class="cls-1" width="0.434" height="4.814" transform="translate(69.53 59.99)"/>
      <rect id="矩形_5964" data-name="矩形 5964" class="cls-1" width="0.434" height="4.814" transform="translate(64.75 100.225)"/>
      <rect id="矩形_5965" data-name="矩形 5965" class="cls-1" width="0.434" height="4.814" transform="translate(62.387 100.225)"/>
      <rect id="矩形_5966" data-name="矩形 5966" class="cls-1" width="0.434" height="4.814" transform="translate(60.023 100.225)"/>
      <rect id="矩形_5967" data-name="矩形 5967" class="cls-1" width="0.434" height="18.295" transform="translate(75.641 86.386)"/>
      <rect id="矩形_5968" data-name="矩形 5968" class="cls-1" width="0.434" height="6.819" transform="translate(63.491 105.255)"/>
      <rect id="矩形_5969" data-name="矩形 5969" class="cls-1" width="0.433" height="6.819" transform="translate(69.43 105.191)"/>
      <rect id="矩形_5970" data-name="矩形 5970" class="cls-1" width="0.433" height="21.034" transform="translate(19.06 100.303)"/>
      <rect id="矩形_5971" data-name="矩形 5971" class="cls-1" width="0.434" height="15.986" transform="translate(75.896 37.489)"/>
      <rect id="矩形_5972" data-name="矩形 5972" class="cls-1" width="0.434" height="13.453" transform="translate(68.044 24.901)"/>
      <rect id="矩形_5973" data-name="矩形 5973" class="cls-1" width="0.434" height="15.986" transform="translate(98.592 26.92)"/>
      <rect id="矩形_5974" data-name="矩形 5974" class="cls-1" width="7.392" height="1.536" transform="translate(104.675 131.869)"/>
      <path id="路径_17381" data-name="路径 17381" class="cls-1" d="M130.331,195.468l-2.809-2.97v-11.28h2.809Z" transform="translate(-24.925 -35.421)"/>
    </g>
  </g>
</svg>
