<svg xmlns="http://www.w3.org/2000/svg" width="412.847" height="390.847" viewBox="0 0 412.847 390.847">
  <defs>
    <style>
      .cls-1 {
        fill: #aacd06;
      }

      .cls-2 {
        fill: #212121;
      }
    </style>
  </defs>
  <g id="组_8018" data-name="组 8018" transform="translate(-831.064 -1139.567)">
    <g id="组_7974" data-name="组 7974" transform="translate(962.166 1191.12)">
      <g id="news">
        <path id="路径_17141" data-name="路径 17141" class="cls-1" d="M205.419,2H32.774A28.8,28.8,0,0,0,4,30.774V260.967a28.8,28.8,0,0,0,28.774,28.774H205.419a28.8,28.8,0,0,0,28.774-28.774V30.774A28.8,28.8,0,0,0,205.419,2ZM75.935,59.548H119.1a14.387,14.387,0,1,1,0,28.774H75.935a14.387,14.387,0,1,1,0-28.774Zm86.322,172.645H75.935a14.387,14.387,0,1,1,0-28.774h86.322a14.387,14.387,0,1,1,0,28.774Zm0-43.161H75.935a14.387,14.387,0,1,1,0-28.774h86.322a14.387,14.387,0,1,1,0,28.774Zm0-43.161H75.935a14.387,14.387,0,1,1,0-28.774h86.322a14.387,14.387,0,1,1,0,28.774Z" transform="translate(-4 -2)"/>
      </g>
      <g id="news-2" data-name="news">
        <path id="路径_17141-2" data-name="路径 17141" class="cls-2" d="M205.419,2H32.774A28.8,28.8,0,0,0,4,30.774V260.967a28.8,28.8,0,0,0,28.774,28.774H205.419a28.8,28.8,0,0,0,28.774-28.774V30.774A28.8,28.8,0,0,0,205.419,2ZM75.935,59.548H119.1a14.387,14.387,0,1,1,0,28.774H75.935a14.387,14.387,0,1,1,0-28.774Zm86.322,172.645H75.935a14.387,14.387,0,1,1,0-28.774h86.322a14.387,14.387,0,1,1,0,28.774Zm0-43.161H75.935a14.387,14.387,0,1,1,0-28.774h86.322a14.387,14.387,0,1,1,0,28.774Zm0-43.161H75.935a14.387,14.387,0,1,1,0-28.774h86.322a14.387,14.387,0,1,1,0,28.774Z" transform="translate(-4 -2)"/>
      </g>
    </g>
    <path id="Icon_awesome-twitter" data-name="Icon awesome-twitter" class="cls-1" d="M197.162,47.861c.139,1.952.139,3.9.139,5.856,0,59.539-45.316,128.141-128.141,128.141A127.273,127.273,0,0,1,0,161.64a93.17,93.17,0,0,0,10.876.558A90.2,90.2,0,0,0,66.79,142.956a45.117,45.117,0,0,1-42.11-31.234,56.8,56.8,0,0,0,8.506.7,47.634,47.634,0,0,0,11.852-1.534,45.044,45.044,0,0,1-36.114-44.2v-.558a45.358,45.358,0,0,0,20.357,5.717A45.1,45.1,0,0,1,15.338,11.607,128.018,128.018,0,0,0,108.2,58.737a50.841,50.841,0,0,1-1.116-10.318A45.081,45.081,0,0,1,185.031,17.6,88.671,88.671,0,0,0,213.615,6.727a44.916,44.916,0,0,1-19.8,24.819,90.288,90.288,0,0,0,25.935-6.972,96.814,96.814,0,0,1-22.588,23.285Z" transform="translate(831.064 1286.807)"/>
  </g>
</svg>
